<?xml version="1.0" encoding="UTF-8"?>
<svg version="1.1" xmlns="http://www.w3.org/2000/svg" width="512" height="512">
<path d="M0 0 C1.07390287 -0.00382555 2.14780574 -0.00765109 3.25425112 -0.01159257 C6.83521083 -0.02187115 10.41600866 -0.01794016 13.99697876 -0.01396179 C16.57156014 -0.0183111 19.14614022 -0.02349498 21.72071838 -0.02944946 C27.97768315 -0.04216798 34.23460495 -0.04399372 40.49158047 -0.0416492 C45.57994913 -0.0398627 50.6683048 -0.04162279 55.75667191 -0.04587364 C56.48219655 -0.04646883 57.2077212 -0.04706402 57.95523144 -0.04767724 C59.42936559 -0.04888906 60.90349974 -0.05010319 62.37763388 -0.05131962 C76.18740537 -0.06218418 89.9971524 -0.0600378 103.80692525 -0.05393478 C116.4248456 -0.04876652 129.04268872 -0.06002058 141.66059379 -0.07903299 C154.63461151 -0.09843127 167.60859273 -0.10666391 180.58262503 -0.10290974 C187.85936311 -0.10100072 195.13603548 -0.10345601 202.41276169 -0.11762428 C209.2565965 -0.13081548 216.10027453 -0.12825108 222.94410896 -0.11521339 C225.45186096 -0.11284977 227.95962386 -0.11557458 230.46736336 -0.12383652 C233.89858644 -0.13432342 237.32929317 -0.12618715 240.76049805 -0.11352539 C241.74563712 -0.12089968 242.73077618 -0.12827396 243.74576795 -0.13587171 C256.41603885 -0.03795172 267.29239119 3.87564157 276.75723267 12.38569641 C286.91522897 23.26411799 288.33205764 36.87755662 288.20254517 51.04975891 C288.19830032 52.82641434 288.19830032 52.82641434 288.19396973 54.63896179 C288.18285662 58.3879801 288.15776847 62.13675142 288.13223267 65.88569641 C288.12219141 68.44168252 288.11306757 70.99767241 288.10488892 73.55366516 C288.08294638 79.78942521 288.04955806 86.02504316 288.00723267 92.26069641 C288.55792797 92.25608745 289.10862328 92.25147848 289.67600632 92.24672985 C303.12424195 92.13593039 316.57239675 92.05370531 330.02099228 92.00163555 C336.52488024 91.97560364 343.02843739 91.94032191 349.53213501 91.88349915 C355.8150785 91.82895209 362.09770489 91.79922775 368.380867 91.7863102 C370.7713342 91.77711108 373.16178513 91.75914769 375.55211639 91.73204613 C391.48020444 91.5587263 404.03684261 91.45197226 416.10488892 103.17085266 C426.59692846 114.6970152 426.47456745 128.94025282 426.44082642 143.69429016 C426.44539956 145.46203815 426.45070845 147.22978437 426.45671082 148.99752808 C426.46559474 152.68469002 426.46327281 156.37163483 426.45327759 160.05879211 C426.44179057 164.7499683 426.46201948 169.44039138 426.49119473 174.13146877 C426.50966709 177.77696375 426.50924251 181.42228186 426.50355721 185.06781197 C426.50340536 186.79592508 426.50933505 188.52405125 426.52184868 190.25211906 C426.60596827 203.76857813 425.85160261 216.94417443 416.00723267 227.26069641 C408.4900958 234.8485828 400.55755871 238.01562688 390.00723267 239.26069641 C388.68723267 239.26069641 387.36723267 239.26069641 386.00723267 239.26069641 C386.33723267 253.12069641 386.66723267 266.98069641 387.00723267 281.26069641 C399.30148467 281.50935753 399.30148467 281.50935753 411.59609985 281.73872375 C427.7141184 282.07475265 442.41460737 282.87872566 454.88223267 294.38569641 C461.86294956 301.86140959 466.08691409 310.88438634 466.18423462 321.09223938 C466.19706985 322.26801544 466.20990509 323.4437915 466.22312927 324.65519714 C466.23420967 326.55980209 466.23420967 326.55980209 466.24551392 328.50288391 C466.25358566 329.81797943 466.26165741 331.13307495 466.26997375 332.48802185 C466.28498561 335.27715422 466.29482693 338.06626134 466.30239868 340.85542297 C466.31338052 344.38986127 466.34768796 347.92365554 466.38757038 351.45786858 C466.41402188 354.20694455 466.422116 356.95587473 466.42568016 359.70506668 C466.43278734 361.62904675 466.45911211 363.552926 466.48606873 365.47673035 C466.44461334 382.58417449 460.83700304 396.52056554 449.19082642 408.91304016 C441.45949866 417.22525479 438.85372368 423.98900034 438.00723267 435.26069641 C439.02817017 435.57007141 439.02817017 435.57007141 440.06973267 435.88569641 C446.22204715 438.76550319 450.55204134 442.84991906 453.00723267 449.26069641 C453.77324649 452.53452719 454.14227978 455.59746751 454.18423462 458.95576477 C454.19706985 459.85697556 454.20990509 460.75818634 454.22312927 461.68670654 C454.23420967 463.12905418 454.23420967 463.12905418 454.24551392 464.60054016 C454.25358566 465.60025345 454.26165741 466.59996674 454.26997375 467.62997437 C454.28377656 469.74050683 454.29451564 471.85106127 454.30239868 473.96162415 C454.31394544 476.11761524 454.33443942 478.27357716 454.36392212 480.42939758 C454.40657348 483.54914217 454.42276186 486.66804033 454.43301392 489.78804016 C454.450522 490.74758102 454.46803009 491.70712189 454.48606873 492.69573975 C454.4677311 498.36433787 453.96443494 501.86375672 450.00723267 506.26069641 C446.9150555 508.19272331 444.54521114 508.5130452 440.92826843 508.52139282 C439.39106895 508.53202003 439.39106895 508.53202003 437.82281494 508.54286194 C436.70426117 508.54038452 435.5857074 508.5379071 434.43325806 508.53535461 C432.65952568 508.54302101 432.65952568 508.54302101 430.84996033 508.55084229 C427.61024751 508.56235965 424.37069338 508.56481202 421.13096547 508.56227899 C418.42470406 508.56120864 415.7184662 508.56609425 413.01220983 508.57088441 C406.62682514 508.58197639 400.24149928 508.58241875 393.85610962 508.57637024 C387.27249075 508.57032978 380.68908556 508.58264384 374.10550314 508.60394031 C368.44932636 508.6215629 362.79321755 508.62755664 357.13701433 508.62430257 C353.76045861 508.6224906 350.38405532 508.62511704 347.00752449 508.63901711 C343.24171534 508.65133086 339.4764028 508.64461972 335.71060181 508.63301086 C334.59407227 508.6406546 333.47754272 508.64829834 332.32717896 508.65617371 C331.29955948 508.64915939 330.27194 508.64214508 329.21318054 508.63491821 C328.32331483 508.63508595 327.43344912 508.6352537 326.51661777 508.63542652 C323.43085352 508.17462488 321.54004776 507.05115158 319.00723267 505.26069641 C316.99950058 502.33756374 316.75183115 499.93571352 316.73257446 496.4355011 C316.72304245 495.48060791 316.71351044 494.52571472 316.70368958 493.54188538 C316.70505669 492.00277496 316.70505669 492.00277496 316.70645142 490.43257141 C316.70216629 489.36959839 316.69788116 488.30662537 316.69346619 487.21144104 C316.68772455 484.96207897 316.6872214 482.71269834 316.69155884 480.46333313 C316.69470813 477.03738798 316.6712939 473.6123154 316.64590454 470.18647766 C316.64363034 467.99767666 316.64292861 465.80887335 316.64395142 463.62007141 C316.6301368 462.09310638 316.6301368 462.09310638 316.61604309 460.53529358 C316.66097146 453.55668694 317.42075739 447.7593393 321.69082642 441.98335266 C322.26961548 441.4355011 322.84840454 440.88764954 323.44473267 440.32319641 C324.30904907 439.47434875 324.30904907 439.47434875 325.19082642 438.60835266 C327.14212414 437.16061564 328.63207954 436.67308564 331.00723267 436.26069641 C330.91878458 434.25993965 330.81060443 432.26005241 330.69473267 430.26069641 C330.63672485 429.14694641 330.57871704 428.03319641 330.51895142 426.88569641 C329.432005 419.18580117 326.58809891 414.11988085 321.38223267 408.44819641 C320.2966433 407.22378112 319.21201603 405.99851218 318.12832642 404.77241516 C317.59578247 404.17606262 317.06323853 403.57971008 316.51455688 402.96528625 C312.8726769 398.84678835 309.45442542 394.5417927 306.00723267 390.26069641 C305.55428833 389.70881653 305.10134399 389.15693665 304.63467407 388.58833313 C291.87150743 373.03469951 286.44696533 359.27083782 286.56118774 339.00605774 C286.56973539 336.69746126 286.54076687 334.39131832 286.50918579 332.08296204 C286.4513525 319.92296229 288.36014841 309.34974275 297.00723267 300.26069641 C306.5993899 291.2657867 313.48532277 290.26069641 327.00723267 290.26069641 C327.00723267 273.43069641 327.00723267 256.60069641 327.00723267 239.26069641 C314.13723267 239.26069641 301.26723267 239.26069641 288.00723267 239.26069641 C288.00723267 241.90069641 288.00723267 244.54069641 288.00723267 247.26069641 C287.19953243 257.2455424 283.16621753 267.10171154 276.00723267 274.26069641 C266.01444647 282.59437498 255.4275333 285.88439812 242.50857544 285.76863098 C241.41648065 285.77487094 240.32438586 285.78111091 239.19919729 285.78753996 C235.57443633 285.80337367 231.95035685 285.79090302 228.32559204 285.77827454 C225.71277985 285.7836999 223.09997073 285.79082488 220.48716736 285.79951477 C214.14801111 285.81722903 207.80904512 285.81349189 201.46988165 285.80186421 C196.31436272 285.79280205 191.15889682 285.79161786 186.00337219 285.79595947 C185.2674413 285.7965724 184.5315104 285.79718534 183.77327856 285.79781684 C182.27788673 285.79909584 180.78249492 285.8003927 179.28710312 285.80170721 C165.29031294 285.81309222 151.29362785 285.80003204 137.29685491 285.77850574 C125.30719518 285.76063663 113.31769039 285.76374132 101.32803345 285.78218079 C87.37867959 285.80362435 73.42941765 285.81199378 59.48004961 285.79973173 C57.99039747 285.79845764 56.50074531 285.79720015 55.01109314 285.79595947 C54.2783041 285.79534237 53.54551505 285.79472527 52.79052028 285.79408947 C47.64583147 285.790647 42.50120133 285.796441 37.35652161 285.80587769 C30.42230268 285.81831822 23.48838005 285.809363 16.55418968 285.78630066 C14.01460949 285.78102736 11.4750046 285.78250359 8.93543434 285.79135132 C5.45859207 285.80234446 1.98267391 285.78849648 -1.49411011 285.76863098 C-2.9877256 285.78201531 -2.9877256 285.78201531 -4.51151514 285.79567003 C-16.77014957 285.66058103 -26.2595083 281.59121845 -35.08261108 273.29585266 C-46.69769145 261.33469914 -46.71865336 248.39380469 -46.62387085 232.69404602 C-46.62901596 230.52295346 -46.63630169 228.35186508 -46.64555359 226.18078613 C-46.66399897 220.31301797 -46.65117257 214.44570676 -46.63146329 208.57795787 C-46.61502093 202.42252155 -46.62389735 196.26711289 -46.62898254 190.11166382 C-46.63349691 179.77804811 -46.61767344 169.4446138 -46.58969116 159.11103821 C-46.55763395 147.18098751 -46.55766057 135.25126375 -46.57490593 123.32118982 C-46.59079399 111.82124815 -46.58402329 100.32142581 -46.56696892 88.82148933 C-46.56011429 83.93777331 -46.56111455 79.05415339 -46.56851387 74.17043877 C-46.57620007 68.41564173 -46.56397409 62.66121481 -46.53666496 56.90648079 C-46.5298049 54.80026472 -46.52965748 52.69401393 -46.53688049 50.58779907 C-46.58403891 35.03982041 -45.52533155 22.91192326 -34.10995483 11.35444641 C-24.0327845 2.02812406 -13.4131749 -0.05122545 0 0 Z " fill="#010101" transform="translate(45.992767333984375,1.7393035888671875)"/>
<path d="M0 0 C1.38397055 -0.00967334 1.38397055 -0.00967334 2.79590011 -0.0195421 C4.31105315 -0.01489629 4.31105315 -0.01489629 5.85681534 -0.01015663 C7.47056183 -0.0169533 7.47056183 -0.0169533 9.11690927 -0.02388728 C12.73421368 -0.03658214 16.35136851 -0.03490761 19.96869278 -0.03325844 C22.55725677 -0.03924055 25.14581897 -0.04604536 27.73437881 -0.05361366 C34.0438232 -0.07023014 40.35323023 -0.07572353 46.66269466 -0.07683842 C51.7922085 -0.07778873 56.92171 -0.08189819 62.05121994 -0.08823967 C76.5961758 -0.10585503 91.14110214 -0.11507826 105.68606874 -0.11357872 C106.47027218 -0.11349881 107.25447561 -0.1134189 108.06244278 -0.11333656 C108.84760459 -0.1132548 109.6327664 -0.11317304 110.44172099 -0.1130888 C123.16223715 -0.11227616 135.88263483 -0.13140759 148.60311672 -0.1596133 C161.66623378 -0.18834997 174.72929309 -0.20215311 187.79244256 -0.20042574 C195.12563469 -0.19976204 202.45870266 -0.20524556 209.7918663 -0.22678185 C216.68982874 -0.24691015 223.58752498 -0.24631186 230.48550034 -0.23174858 C233.01708738 -0.22965506 235.54869068 -0.23439352 238.08024979 -0.2464695 C241.53700534 -0.26189046 244.99285296 -0.25263338 248.44958878 -0.23720741 C249.45076792 -0.24749454 250.45194705 -0.25778167 251.48346496 -0.26838052 C258.23164348 -0.20186198 263.89870719 0.92347426 268.93028426 5.70455611 C273.21210891 10.62246224 274.66361282 14.07425999 274.60248184 20.55414391 C274.59603653 21.75941734 274.58959122 22.96469078 274.58295059 24.20648766 C274.56619278 25.46074547 274.54943497 26.71500328 274.53216934 28.00726891 C274.5231459 29.27699547 274.51412247 30.54672203 274.50482559 31.85492516 C274.48125939 34.98922983 274.44835767 38.12315431 274.40716934 41.25726891 C272.8447713 41.25808606 272.8447713 41.25808606 271.25080967 41.25891972 C245.92127938 41.27330701 220.59192111 41.31628989 195.26249027 41.38935947 C183.01341442 41.42403133 170.76445135 41.44936789 158.51532364 41.45282555 C147.84055688 41.45586238 137.1659909 41.47631508 126.49130172 41.51779348 C120.83765017 41.53915056 115.18428424 41.55171009 109.53059196 41.5434227 C104.21089962 41.53589984 98.89178684 41.55163375 93.57220078 41.58532906 C91.61828634 41.5935836 89.66431451 41.59328735 87.71040535 41.58386612 C85.04461896 41.57228337 82.3807444 41.5913014 79.71510696 41.61803246 C78.93980867 41.6073592 78.16451037 41.59668594 77.36571819 41.58568925 C73.40771365 41.65986487 71.58430207 42.11948455 68.42307949 44.57847118 C66.14057399 47.17766166 66.14057399 47.17766166 65.84466934 50.75726891 C66.48839153 54.76265142 67.56662761 56.41672717 70.40716934 59.25726891 C73.53818069 60.82277458 76.87839164 60.41117692 80.31637955 60.41548729 C81.14296597 60.42042527 81.9695524 60.42536324 82.8211869 60.43045086 C85.60651879 60.44587774 88.39182754 60.45420048 91.17718887 60.46259117 C93.16760844 60.47216562 95.15802596 60.48217544 97.14844131 60.49258995 C102.56549241 60.51969203 107.98255226 60.54067283 113.39963388 60.56059194 C119.05579772 60.58241885 124.71193438 60.60982362 130.36807632 60.63664818 C141.08486658 60.68661972 151.80167188 60.73154196 162.51849163 60.77467054 C174.71663099 60.82400484 186.91474312 60.87893706 199.11285615 60.93435013 C224.21093514 61.04823865 249.30904025 61.15506269 274.40716934 61.25726891 C274.40716934 64.55726891 274.40716934 67.85726891 274.40716934 71.25726891 C273.06525528 71.38681969 273.06525528 71.38681969 271.69623184 71.51898766 C260.69491158 72.79739268 250.96514857 75.738373 243.40716934 84.25726891 C237.84847757 92.12673324 235.1091305 99.01731314 235.10077286 108.71845055 C235.08828758 109.96128304 235.08828758 109.96128304 235.07555008 111.22922325 C235.05152932 113.95867231 235.04268547 116.6878817 235.03607559 119.41742516 C235.02709969 121.32826873 235.01797768 123.23911163 235.00871658 125.14995384 C234.992243 129.15538803 234.98453007 133.16073882 234.98163223 137.16620445 C234.97626565 142.26789711 234.93865 147.36879152 234.89288807 152.47025967 C234.86295338 156.41942166 234.85590505 160.36839577 234.85490608 164.31766129 C234.85073237 166.19651933 234.83841432 168.07537943 234.81738853 169.95412445 C234.67759401 183.53161845 235.34886893 196.17890953 245.38373184 206.54242516 C254.26622462 214.07025205 263.02331341 216.48754199 274.40716934 217.25726891 C274.93126174 224.24516759 275.17356035 229.7771377 270.89545059 235.57367516 C266.48874397 240.55868973 262.02563107 243.88026549 255.16235375 244.44051242 C252.395968 244.52140176 249.63643999 244.53336403 246.86886978 244.52469444 C245.80766415 244.52922556 244.74645851 244.53375667 243.65309513 244.53842509 C240.09728002 244.55108506 236.54161777 244.54944767 232.98578262 244.54779625 C230.43633197 244.55378045 227.88688313 244.56058574 225.33743668 244.56815147 C219.13119782 244.58399248 212.92501494 244.59026028 206.71875776 244.59137623 C201.67319711 244.59232737 196.62764898 244.59644095 191.58209229 244.60277748 C177.27030274 244.62038481 162.95854317 244.62961704 148.64674272 244.62811653 C147.87561807 244.62803662 147.10449343 244.62795671 146.31000137 244.62787437 C145.15189885 244.62775173 145.15189885 244.62775173 143.97040032 244.62762661 C131.45693935 244.62681364 118.94359873 244.64595534 106.43017258 244.67415111 C93.57491435 244.7028881 80.7197148 244.71669099 67.86442363 244.71496356 C60.64975009 244.71429998 53.43520275 244.71977807 46.22055817 244.74131966 C39.43582662 244.76144819 32.65140577 244.7608495 25.86664581 244.74628639 C23.3769835 244.74419308 20.88730464 244.74893013 18.39767075 244.76100731 C14.99794493 244.77643085 11.59914197 244.76716964 8.19943619 244.75174522 C7.21518508 244.76203235 6.23093397 244.77231948 5.21685708 244.78291833 C-1.85665757 244.71204077 -7.20156511 243.18370848 -12.61626816 238.51117516 C-13.06228378 237.95301109 -13.50829941 237.39484703 -13.96783066 236.81976891 C-14.42931503 236.26418297 -14.89079941 235.70859703 -15.36626816 235.13617516 C-18.33429002 230.58961938 -18.84142754 226.69849152 -18.83333969 221.3160305 C-18.83504854 220.62980513 -18.83675739 219.94357977 -18.83851802 219.23655969 C-18.84180432 216.94412048 -18.83082361 214.65197594 -18.81988144 212.35956383 C-18.81931714 210.71352711 -18.81963425 209.0674899 -18.82076645 207.42145348 C-18.82134023 202.95697176 -18.80958182 198.49259753 -18.79561853 194.02814078 C-18.78311539 189.36097684 -18.781941 184.69381042 -18.77956772 180.02663231 C-18.77335173 171.19049122 -18.75693929 162.35439962 -18.73686874 153.51828033 C-18.71451345 143.45790324 -18.70351724 133.39752379 -18.69347787 123.33712804 C-18.67257318 102.64381404 -18.63739487 81.95054459 -18.59283066 61.25726891 C-17.49583847 61.21988609 -16.39884628 61.18250328 -15.26861191 61.14398766 C-13.81415209 61.07830237 -12.3597265 61.01185592 -10.90533066 60.94476891 C-10.18410019 60.92221031 -9.46286972 60.89965172 -8.71978378 60.87640953 C-4.24840869 60.65181991 -1.23622615 60.10303792 2.40716934 57.25726891 C4.88755841 53.5366853 4.87054137 51.6593032 4.40716934 47.25726891 C2.5400843 44.89229451 1.08655503 43.59696175 -1.59283066 42.25726891 C-4.47193653 42.02452681 -7.33429561 41.83754134 -10.21783066 41.69476891 C-11.42052597 41.62999352 -11.42052597 41.62999352 -12.64751816 41.56390953 C-14.62908176 41.45775434 -16.61093336 41.35700035 -18.59283066 41.25726891 C-18.73903254 36.92429511 -18.82720796 32.59196252 -18.90533066 28.25726891 C-18.94722519 27.03652672 -18.98911972 25.81578453 -19.03228378 24.55805016 C-19.13270461 17.12690907 -18.66156091 11.92199271 -13.59283066 6.25726891 C-9.39716543 2.36860357 -5.77963894 0.01022799 0 0 Z " fill="#CAC9F2" transform="translate(38.592830657958984,22.74273109436035)"/>
<path d="M0 0 C3.99104912 0.30178065 6.19416343 1.73413808 9 4.625 C10.42993851 7.48487702 10.12475157 9.92233557 10.12597656 13.11914062 C10.1278447 13.78611969 10.12971283 14.45309875 10.13163757 15.14028931 C10.13564549 16.5916963 10.13771677 18.04310962 10.13809967 19.49452209 C10.14151891 22.5906983 10.16289564 25.68666525 10.18333054 28.78276825 C10.22128715 34.5462859 10.25262666 40.3095853 10.25048828 46.07324219 C10.24969652 50.0829357 10.27326759 54.09186939 10.3123703 58.10136414 C10.32276834 59.6225797 10.32440038 61.14388365 10.31671906 62.66511536 C10.27700734 71.40877003 10.45165307 79.40637832 16 86.625 C20.75311651 90.51402617 25.32634126 92.74001181 31.52807617 92.7668457 C32.900467 92.77739738 32.900467 92.77739738 34.30058289 92.78816223 C35.28807022 92.79232651 36.27555756 92.79649078 37.29296875 92.80078125 C39.38868184 92.82398706 41.48438499 92.8481047 43.58007812 92.87304688 C46.88035662 92.90809625 50.18027131 92.93747053 53.48071289 92.95092773 C56.66857961 92.96646664 59.85538484 93.00672222 63.04296875 93.05078125 C64.50901802 93.04791862 64.50901802 93.04791862 66.00468445 93.04499817 C73.14296992 93.17148203 78.5539041 94.65124543 84.0234375 99.37109375 C84.46945312 99.92925781 84.91546875 100.48742187 85.375 101.0625 C86.06722656 101.89587891 86.06722656 101.89587891 86.7734375 102.74609375 C89.30888524 106.63001211 90.25029322 110.150009 90.29052734 114.75976562 C90.30328705 115.75850708 90.31604675 116.75724854 90.32919312 117.78625488 C90.33141876 118.85710327 90.33364441 119.92795166 90.3359375 121.03125 C90.3459227 122.70568176 90.3459227 122.70568176 90.35610962 124.41394043 C90.3662284 126.77757117 90.37092688 129.14123043 90.37060547 131.50488281 C90.37495081 135.08447829 90.41120332 138.66281231 90.44921875 142.2421875 C90.5307405 158.51706179 89.97569938 171.6852281 79 184.625 C77.85015937 185.76719203 76.6839514 186.89320499 75.5 188 C64.8151739 198.15420268 62.95378688 210.31819675 62 224.625 C39.89 224.625 17.78 224.625 -5 224.625 C-5.33 219.015 -5.66 213.405 -6 207.625 C-8.74882341 199.21683427 -12.26761425 193.25172413 -18 186.625 C-18.86068174 185.60657165 -19.71996642 184.5869616 -20.578125 183.56640625 C-22.45675052 181.33643093 -24.34128083 179.11165795 -26.23046875 176.890625 C-48.29868352 150.9064662 -48.29868352 150.9064662 -48.3359375 138.47265625 C-48.3425943 137.69490341 -48.3492511 136.91715057 -48.35610962 136.11582947 C-48.36620337 134.47608799 -48.37092766 132.83630571 -48.37060547 131.1965332 C-48.3749804 128.69868879 -48.41133635 126.20261056 -48.44921875 123.70507812 C-48.45508746 122.10677683 -48.45905649 120.50846721 -48.4609375 118.91015625 C-48.47530853 118.16935318 -48.48967957 117.42855011 -48.50448608 116.66529846 C-48.45929607 111.49392674 -47.24284664 108.61286493 -44 104.625 C-40.38875482 101.43366705 -38.0106604 100.41182696 -33.29296875 100.5234375 C-32.48754639 100.53810059 -31.68212402 100.55276367 -30.85229492 100.56787109 C-30.2410376 100.58672363 -29.62978027 100.60557617 -29 100.625 C-28.98541748 101.44701904 -28.97083496 102.26903809 -28.95581055 103.1159668 C-28.88123667 106.84861323 -28.78460488 110.58037459 -28.6875 114.3125 C-28.66494141 115.60607422 -28.64238281 116.89964844 -28.61914062 118.23242188 C-28.5659668 120.10317383 -28.5659668 120.10317383 -28.51171875 122.01171875 C-28.48553467 123.15858154 -28.45935059 124.30544434 -28.43237305 125.48706055 C-27.95498102 128.95172441 -27.0847493 130.83990283 -25 133.625 C-21.49337515 135.9627499 -20.12370255 135.9548962 -16 135.625 C-13.2029802 135.00749718 -13.2029802 135.00749718 -11 133.625 C-9.91632174 130.59462029 -9.875279 127.71058681 -9.87542725 124.51480103 C-9.87286423 123.48303238 -9.87030121 122.45126373 -9.86766052 121.38822937 C-9.86976028 120.2618959 -9.87186005 119.13556244 -9.87402344 117.97509766 C-9.8721553 116.78446213 -9.87028717 115.5938266 -9.86836243 114.36711121 C-9.86435758 111.78020062 -9.86228351 109.19328649 -9.86190033 106.60637283 C-9.86075807 102.5129623 -9.84790599 98.41964155 -9.83233643 94.32626343 C-9.82976357 93.63480024 -9.82719072 92.94333705 -9.8245399 92.23092043 C-9.81927357 90.81716785 -9.81398809 89.40341533 -9.80868387 87.98966289 C-9.77359995 78.46282099 -9.74702268 68.9360916 -9.74951172 59.40917969 C-9.75110146 52.97861895 -9.73504019 46.54836539 -9.69880509 40.11790311 C-9.68036538 36.71718347 -9.67098439 33.31697658 -9.68328094 29.9162178 C-9.69287828 26.12156246 -9.67176382 22.32822744 -9.64355469 18.53369141 C-9.65884972 16.8502639 -9.65884972 16.8502639 -9.67445374 15.13282776 C-9.56109761 6.63738579 -9.56109761 6.63738579 -6.58868408 2.92611694 C-3.11330283 -0.16319733 -3.11330283 -0.16319733 0 0 Z " fill="#FDD2BC" transform="translate(402,211.375)"/>
<path d="M0 0 C1.2951503 -0.00861557 2.5903006 -0.01723114 3.92469788 -0.02610779 C7.46203281 -0.04853017 10.9989188 -0.04567904 14.53629756 -0.03678632 C17.49595127 -0.03166081 20.45552178 -0.03898164 23.41516691 -0.04625839 C30.40055046 -0.0632348 37.38571544 -0.05971465 44.37109375 -0.04296875 C51.56322447 -0.02604949 58.75474814 -0.04188383 65.94681257 -0.07419163 C72.13560806 -0.10093321 78.3242151 -0.10815128 84.51306254 -0.09967655 C88.20329774 -0.09476055 91.89316786 -0.09689026 95.58335686 -0.11746407 C99.70048479 -0.13932126 103.81647046 -0.12037135 107.93359375 -0.09765625 C109.14683319 -0.10934845 110.36007263 -0.12104065 111.6100769 -0.13308716 C118.71565331 -0.05340313 123.56010498 0.82336875 129.03149414 5.53344727 C133.42039942 10.20550772 133.19179115 15.24167439 133.24023438 21.38793945 C133.25001816 22.175466 133.25980194 22.96299255 133.2698822 23.77438354 C133.29975526 26.37634611 133.32119902 28.9782576 133.34008789 31.58032227 C133.34665972 32.47133888 133.35323154 33.3623555 133.36000252 34.28037262 C133.39256062 38.99687615 133.41702018 43.71335742 133.43652344 48.42993164 C133.45433161 52.32544923 133.48914871 56.22024228 133.5390625 60.11547852 C133.59936366 64.82750658 133.6300122 69.53886333 133.63969612 74.25125885 C133.64823446 76.04218616 133.66701259 77.8330963 133.69643974 79.62380219 C133.95919048 96.52249353 133.95919048 96.52249353 128.65785217 102.24127197 C123.71446506 106.16889588 119.20810026 106.91160682 113.03149414 106.53344727 C112.94512695 105.90438477 112.85875977 105.27532227 112.76977539 104.62719727 C111.30645352 95.71301635 108.00174336 89.39479081 100.82055664 83.78735352 C93.40830509 78.59230385 85.91515152 78.57431025 77.03149414 79.53344727 C69.15329552 81.71948897 63.64938691 86.92352232 59.03149414 93.53344727 C57.48407319 96.58646698 56.87167122 99.33874314 56.47875977 102.70336914 C56.25736328 104.59925781 56.25736328 104.59925781 56.03149414 106.53344727 C47.17328793 106.64961165 38.31534638 106.7382986 29.45654297 106.79250813 C25.34241717 106.81853427 21.22881483 106.85380253 17.11499023 106.91064453 C13.14029847 106.96521656 9.16610823 106.99492026 5.19107056 107.00783348 C3.67925122 107.01702853 2.16745743 107.03498438 0.65585327 107.06209755 C-13.52429638 107.30618528 -13.52429638 107.30618528 -19.38598633 103.29362488 C-24.15531428 97.98887879 -25.56493901 93.37471905 -25.50195312 86.33837891 C-25.5105687 85.55041428 -25.51918427 84.76244965 -25.52806091 83.9506073 C-25.55062951 81.36459827 -25.54399901 78.77968103 -25.53491211 76.19360352 C-25.54015191 74.3843097 -25.5464297 72.57501862 -25.55369568 70.76573181 C-25.56408319 66.98057162 -25.55956248 63.19578775 -25.54492188 59.41064453 C-25.52774024 54.574066 -25.55122994 49.7386762 -25.58641148 44.90223026 C-25.60843461 41.16768103 -25.60693209 37.43341406 -25.59864616 33.69882011 C-25.59782926 31.91633234 -25.60464251 30.13382329 -25.61941719 28.35139656 C-25.73659194 11.65710077 -25.73659194 11.65710077 -21.72373962 6.02464294 C-14.7135513 0.06899035 -8.97811356 -0.04821183 0 0 Z " fill="#65E2CF" transform="translate(317.968505859375,113.466552734375)"/>
<path d="M0 0 C1.38397055 -0.00967334 1.38397055 -0.00967334 2.79590011 -0.0195421 C4.31105315 -0.01489629 4.31105315 -0.01489629 5.85681534 -0.01015663 C7.47056183 -0.0169533 7.47056183 -0.0169533 9.11690927 -0.02388728 C12.73421368 -0.03658214 16.35136851 -0.03490761 19.96869278 -0.03325844 C22.55725677 -0.03924055 25.14581897 -0.04604536 27.73437881 -0.05361366 C34.0438232 -0.07023014 40.35323023 -0.07572353 46.66269466 -0.07683842 C51.7922085 -0.07778873 56.92171 -0.08189819 62.05121994 -0.08823967 C76.5961758 -0.10585503 91.14110214 -0.11507826 105.68606874 -0.11357872 C106.47027218 -0.11349881 107.25447561 -0.1134189 108.06244278 -0.11333656 C108.84760459 -0.1132548 109.6327664 -0.11317304 110.44172099 -0.1130888 C123.16223715 -0.11227616 135.88263483 -0.13140759 148.60311672 -0.1596133 C161.66623378 -0.18834997 174.72929309 -0.20215311 187.79244256 -0.20042574 C195.12563469 -0.19976204 202.45870266 -0.20524556 209.7918663 -0.22678185 C216.68982874 -0.24691015 223.58752498 -0.24631186 230.48550034 -0.23174858 C233.01708738 -0.22965506 235.54869068 -0.23439352 238.08024979 -0.2464695 C241.53700534 -0.26189046 244.99285296 -0.25263338 248.44958878 -0.23720741 C249.45076792 -0.24749454 250.45194705 -0.25778167 251.48346496 -0.26838052 C258.23164348 -0.20186198 263.89870719 0.92347426 268.93028426 5.70455611 C273.21210891 10.62246224 274.66361282 14.07425999 274.60248184 20.55414391 C274.59603653 21.75941734 274.58959122 22.96469078 274.58295059 24.20648766 C274.56619278 25.46074547 274.54943497 26.71500328 274.53216934 28.00726891 C274.5231459 29.27699547 274.51412247 30.54672203 274.50482559 31.85492516 C274.48125939 34.98922983 274.44835767 38.12315431 274.40716934 41.25726891 C272.8447713 41.25808606 272.8447713 41.25808606 271.25080967 41.25891972 C245.92127938 41.27330701 220.59192111 41.31628989 195.26249027 41.38935947 C183.01341442 41.42403133 170.76445135 41.44936789 158.51532364 41.45282555 C147.84055688 41.45586238 137.1659909 41.47631508 126.49130172 41.51779348 C120.83765017 41.53915056 115.18428424 41.55171009 109.53059196 41.5434227 C104.21089962 41.53589984 98.89178684 41.55163375 93.57220078 41.58532906 C91.61828634 41.5935836 89.66431451 41.59328735 87.71040535 41.58386612 C85.04461896 41.57228337 82.3807444 41.5913014 79.71510696 41.61803246 C78.93980867 41.6073592 78.16451037 41.59668594 77.36571819 41.58568925 C73.43577487 41.65933898 71.59281518 42.11348919 68.45042324 44.54722118 C66.13066561 47.25719543 66.13066561 47.25719543 65.40716934 51.25726891 C58.80716934 51.25726891 52.20716934 51.25726891 45.40716934 51.25726891 C44.74716934 53.23726891 44.08716934 55.21726891 43.40716934 57.25726891 C40.80119871 60.00801569 39.19711349 61.10600301 35.46966934 61.81976891 C31.26064414 61.04668264 29.33717732 59.32355633 26.40716934 56.25726891 C26.07716934 54.60726891 25.74716934 52.95726891 25.40716934 51.25726891 C18.80716934 51.25726891 12.20716934 51.25726891 5.40716934 51.25726891 C4.41716934 48.94726891 3.42716934 46.63726891 2.40716934 44.25726891 C-1.01417066 41.34098386 -6.03457715 41.80374168 -10.34283066 41.63226891 C-11.1356041 41.59359703 -11.92837753 41.55492516 -12.74517441 41.51508141 C-14.69402482 41.4211609 -16.64339516 41.33814068 -18.59283066 41.25726891 C-18.73903254 36.92429511 -18.82720796 32.59196252 -18.90533066 28.25726891 C-18.94722519 27.03652672 -18.98911972 25.81578453 -19.03228378 24.55805016 C-19.13270461 17.12690907 -18.66156091 11.92199271 -13.59283066 6.25726891 C-9.39716543 2.36860357 -5.77963894 0.01022799 0 0 Z " fill="#9492E5" transform="translate(38.592830657958984,22.74273109436035)"/>
<path d="M0 0 C0.86445236 0.00202423 1.72890472 0.00404846 2.61955261 0.00613403 C3.52517441 0.00438171 4.4307962 0.00262939 5.36386108 0.00082397 C8.37293892 -0.00359597 11.3819585 -0.00065605 14.39103699 0.00271606 C16.47229524 0.00204307 18.55355342 0.00107308 20.6348114 -0.00018311 C25.00294236 -0.00166027 29.37105292 0.00049508 33.73918152 0.00515747 C39.35193252 0.01085477 44.96463571 0.00757586 50.57738495 0.00158501 C54.87690087 -0.0020201 59.17640537 -0.00088225 63.47592163 0.0017128 C65.5460816 0.00238221 67.61624259 0.00155316 69.68640137 -0.00076675 C72.57430285 -0.00329245 75.46212576 0.00054614 78.35002136 0.00613403 C79.21447372 0.0041098 80.07892609 0.00208557 80.96957397 0 C86.87052462 0.02126619 86.87052462 0.02126619 87.98478699 1.13552856 C87.98478699 11.69552856 87.98478699 22.25552856 87.98478699 33.13552856 C56.63478699 33.13552856 25.28478699 33.13552856 -7.01521301 33.13552856 C-7.01521301 0.02528184 -7.01521301 0.02528184 0 0 Z " fill="#A4DAFE" transform="translate(391.0152130126953,455.8644714355469)"/>
<path d="M0 0 C2.97672584 1.77280561 5.42804007 3.85608015 7 7 C7.08308638 8.37548156 7.10736016 9.75485796 7.09765625 11.1328125 C7.09443359 11.93847656 7.09121094 12.74414062 7.08789062 13.57421875 C7.07532227 14.83685547 7.07532227 14.83685547 7.0625 16.125 C7.05798828 16.97449219 7.05347656 17.82398438 7.04882812 18.69921875 C7.03702874 20.79950909 7.01909306 22.8997633 7 25 C8.75376953 24.94779297 8.75376953 24.94779297 10.54296875 24.89453125 C12.09113141 24.86638284 13.63930968 24.83908381 15.1875 24.8125 C15.95642578 24.78736328 16.72535156 24.76222656 17.51757812 24.73632812 C22.2346122 24.67559378 25.10900792 25.04490942 29 28 C29.598125 28.4125 30.19625 28.825 30.8125 29.25 C32.81048544 32.1943996 32.40967334 34.54703896 32 38 C28.94736842 43.68421053 28.94736842 43.68421053 25 45 C23.59175107 45.08021999 22.18002769 45.10765977 20.76953125 45.09765625 C19.96708984 45.09443359 19.16464844 45.09121094 18.33789062 45.08789062 C17.50451172 45.07951172 16.67113281 45.07113281 15.8125 45.0625 C14.96751953 45.05798828 14.12253906 45.05347656 13.25195312 45.04882812 C11.16793845 45.03705403 9.08396023 45.0191189 7 45 C7.04640625 46.22976562 7.0928125 47.45953125 7.140625 48.7265625 C7.17816036 50.3593506 7.21455862 51.99216511 7.25 53.625 C7.30027344 54.83736328 7.30027344 54.83736328 7.3515625 56.07421875 C7.4407298 61.55800755 6.69238797 64.66486302 3 69 C-0.20173254 70.60086627 -3.52577059 70.49917089 -7 70 C-9.8100346 68.20636089 -11.50940468 66.98119065 -13 64 C-13.08342159 62.55151418 -13.10732861 61.09929131 -13.09765625 59.6484375 C-13.09443359 58.79765625 -13.09121094 57.946875 -13.08789062 57.0703125 C-13.07951172 56.18085938 -13.07113281 55.29140625 -13.0625 54.375 C-13.05798828 53.4778125 -13.05347656 52.580625 -13.04882812 51.65625 C-13.03702591 49.43743352 -13.02056155 47.21874982 -13 45 C-14.31355469 45.04640625 -15.62710938 45.0928125 -16.98046875 45.140625 C-18.71612304 45.17815266 -20.45180199 45.21455175 -22.1875 45.25 C-23.05181641 45.28351563 -23.91613281 45.31703125 -24.80664062 45.3515625 C-29.0611794 45.41676616 -31.35727716 45.39830711 -35.05078125 43.109375 C-38.05265601 39.86085321 -38.38749273 37.47783341 -38.36328125 33.0390625 C-37.75965397 29.650961 -35.5844052 28.08013101 -33 26 C-32.67 25.67 -32.34 25.34 -32 25 C-30.58429877 24.91348389 -29.164405 24.89295096 -27.74609375 24.90234375 C-26.46508789 24.90717773 -26.46508789 24.90717773 -25.15820312 24.91210938 C-24.26037109 24.92048828 -23.36253906 24.92886719 -22.4375 24.9375 C-21.53580078 24.94201172 -20.63410156 24.94652344 -19.70507812 24.95117188 C-17.46998686 24.96299775 -15.23502563 24.9794778 -13 25 C-13.04640625 23.68644531 -13.0928125 22.37289062 -13.140625 21.01953125 C-13.17815266 19.28387696 -13.21455175 17.54819801 -13.25 15.8125 C-13.28351563 14.94818359 -13.31703125 14.08386719 -13.3515625 13.19335938 C-13.41676616 8.9388206 -13.39830711 6.64272284 -11.109375 2.94921875 C-7.47298631 -0.41107376 -4.91236717 -0.49123672 0 0 Z " fill="#020202" transform="translate(106,127)"/>
<path d="M0 0 C0.77085937 0.04382813 1.54171875 0.08765625 2.3359375 0.1328125 C5.82966223 1.26559014 6.82299785 2.68276542 8.625 5.875 C9.09355548 9.16442082 9.00350054 12.37366868 8.875 15.6875 C8.85695312 16.57115234 8.83890625 17.45480469 8.8203125 18.36523438 C8.77338513 20.53562543 8.70164731 22.70545519 8.625 24.875 C9.85476562 24.82859375 11.08453125 24.7821875 12.3515625 24.734375 C13.9843506 24.69683964 15.61716511 24.66044138 17.25 24.625 C18.05824219 24.59148437 18.86648437 24.55796875 19.69921875 24.5234375 C25.18300755 24.4342702 28.28986302 25.18261203 32.625 28.875 C34.22586627 32.07673254 34.12417089 35.40077059 33.625 38.875 C31.83136089 41.6850346 30.60619065 43.38440468 27.625 44.875 C26.17651418 44.95842159 24.72429131 44.98232861 23.2734375 44.97265625 C21.99726563 44.96782227 21.99726563 44.96782227 20.6953125 44.96289062 C19.80585938 44.95451172 18.91640625 44.94613281 18 44.9375 C16.65421875 44.93073242 16.65421875 44.93073242 15.28125 44.92382812 C13.06243352 44.91202591 10.84374982 44.89556155 8.625 44.875 C8.67140625 46.18855469 8.7178125 47.50210938 8.765625 48.85546875 C8.80315266 50.59112304 8.83955175 52.32680199 8.875 54.0625 C8.90851563 54.92681641 8.94203125 55.79113281 8.9765625 56.68164062 C9.04176616 60.9361794 9.02330711 63.23227716 6.734375 66.92578125 C3.48666257 69.9269081 1.10295606 70.26665786 -3.3359375 70.234375 C-6.75506698 69.6317698 -8.30689052 67.50713933 -10.375 64.875 C-11.5232685 62.578463 -11.49061175 61.29186833 -11.47265625 58.7421875 C-11.46943359 57.93652344 -11.46621094 57.13085938 -11.46289062 56.30078125 C-11.45451172 55.45902344 -11.44613281 54.61726563 -11.4375 53.75 C-11.43298828 52.90050781 -11.42847656 52.05101562 -11.42382812 51.17578125 C-11.41202874 49.07549091 -11.39409306 46.9752367 -11.375 44.875 C-13.34533203 44.96201172 -13.34533203 44.96201172 -15.35546875 45.05078125 C-17.09111023 45.09769048 -18.82679023 45.14318939 -20.5625 45.1875 C-21.42681641 45.22939453 -22.29113281 45.27128906 -23.18164062 45.31445312 C-27.76536459 45.40226393 -29.70685206 45.39942341 -33.42578125 42.48046875 C-36.2652255 38.68505931 -36.92521911 36.6435656 -36.375 31.875 C-34.56189858 28.94562346 -32.50204101 26.43852051 -29.375 24.875 C-27.99951844 24.79191362 -26.62014204 24.76763984 -25.2421875 24.77734375 C-24.43652344 24.78056641 -23.63085938 24.78378906 -22.80078125 24.78710938 C-21.95902344 24.79548828 -21.11726562 24.80386719 -20.25 24.8125 C-19.40050781 24.81701172 -18.55101562 24.82152344 -17.67578125 24.82617188 C-15.57549091 24.83797126 -13.4752367 24.85590694 -11.375 24.875 C-11.43300781 23.64523438 -11.49101562 22.41546875 -11.55078125 21.1484375 C-11.59770005 19.51566312 -11.64319794 17.88284748 -11.6875 16.25 C-11.72939453 15.44175781 -11.77128906 14.63351563 -11.81445312 13.80078125 C-11.90144152 9.52095214 -11.74302858 6.74617329 -8.98046875 3.3515625 C-5.68246167 0.21672519 -4.40931423 -0.33692434 0 0 Z " fill="#020202" transform="translate(231.375,127.125)"/>
<path d="M0 0 C2.9375 1.75 2.9375 1.75 5 5 C5.4127074 9.36517438 5.28795237 13.62952299 5 18 C6.21236328 17.94779297 6.21236328 17.94779297 7.44921875 17.89453125 C8.51785156 17.86746094 9.58648437 17.84039062 10.6875 17.8125 C11.74324219 17.77769531 12.79898438 17.74289063 13.88671875 17.70703125 C17.41836599 18.03936945 19.18255429 18.88321504 22 21 C24.48386059 24.72579089 24.3804212 26.58711402 24 31 C22.76066144 33.78851176 21.83914605 35.44883362 19.28125 37.12890625 C16.33353778 38.25448814 13.89587972 38.19338869 10.75 38.125 C9.67234375 38.10695312 8.5946875 38.08890625 7.484375 38.0703125 C6.66453125 38.04710937 5.8446875 38.02390625 5 38 C5.05220703 39.21236328 5.05220703 39.21236328 5.10546875 40.44921875 C5.13253906 41.51785156 5.15960938 42.58648437 5.1875 43.6875 C5.23970703 45.27111328 5.23970703 45.27111328 5.29296875 46.88671875 C4.96063055 50.41836599 4.11678496 52.18255429 2 55 C-1.66908557 57.44605705 -4.73618769 57.83946402 -9 57 C-11.69105198 54.82425584 -13.45532928 53.08934144 -15 50 C-15.07065617 47.95944995 -15.08421976 45.91665743 -15.0625 43.875 C-15.05347656 42.77929688 -15.04445313 41.68359375 -15.03515625 40.5546875 C-15.02355469 39.71164063 -15.01195312 38.86859375 -15 38 C-15.88042969 38.05800781 -16.76085937 38.11601562 -17.66796875 38.17578125 C-26.99814701 38.53821881 -26.99814701 38.53821881 -29.94140625 36.95703125 C-32.71417097 34.13460508 -33.90677475 31.60596411 -34.5 27.75 C-33.89963479 23.24726095 -32.86427637 21.81730864 -29.35546875 19.08984375 C-24.79222312 16.97849129 -19.90431628 17.56513452 -15 18 C-15.05800781 17.20335937 -15.11601562 16.40671875 -15.17578125 15.5859375 C-15.59033741 5.8497899 -15.59033741 5.8497899 -12.6875 2.3125 C-8.33813276 -1.42997879 -5.45703209 -1.31721464 0 0 Z " fill="#010202" transform="translate(377,139)"/>
<path d="M0 0 C0.98033203 -0.00257812 1.96066406 -0.00515625 2.97070312 -0.0078125 C11.968959 0.11436341 11.968959 0.11436341 15.9375 3.5 C18.38355705 7.16908557 18.77696402 10.23618769 17.9375 14.5 C15.76175584 17.19105198 14.02684144 18.95532928 10.9375 20.5 C7.33985402 20.79382599 3.73324606 20.77796031 0.125 20.8125 C-0.87337891 20.84150391 -1.87175781 20.87050781 -2.90039062 20.90039062 C-10.30386168 20.96451129 -10.30386168 20.96451129 -14.17578125 18.59375 C-17.22730639 15.20737841 -18.0625 13.71587669 -18.0625 9.0625 C-17.03981523 5.41918551 -16.01048875 3.84484701 -13.05517578 1.52319336 C-8.96587268 -0.57657009 -4.48994228 -0.13040096 0 0 Z " fill="#020203" transform="translate(280.0625,32.5)"/>
<path d="M0 0 C3.95403662 0.26360244 5.65370756 0.86143155 8.75 3.25 C11.23534519 6.97801778 11.01369165 8.72331786 10.41796875 13.01953125 C9.22766709 16.99416426 7.30660184 18.16972345 3.75 20.25 C0.5807337 20.91026381 -1.15992131 20.94114546 -3.92578125 19.1875 C-7.59282444 16.24686393 -9.09746043 14.59743291 -9.625 9.9375 C-9.15786625 5.34401813 -7.72959782 4.13552015 -4.25 1.25 C-3.25 0.25 -3.25 0.25 0 0 Z " fill="#040406" transform="translate(73.25,63.75)"/>
</svg>
