<?xml version="1.0" encoding="UTF-8"?>
<svg version="1.1" xmlns="http://www.w3.org/2000/svg" width="512" height="512">
<path d="M0 0 C1.12667049 -0.00935994 1.12667049 -0.00935994 2.27610201 -0.01890898 C4.79493656 -0.03487319 7.31280792 -0.02222154 9.83164978 -0.00964355 C11.63703476 -0.01506349 13.44241532 -0.02218543 15.24778748 -0.03088379 C20.15526742 -0.0491445 25.06241157 -0.04203587 29.96989751 -0.02936745 C35.10973217 -0.01924314 40.24953799 -0.02863255 45.38937378 -0.03491211 C54.02887631 -0.04219476 62.66824221 -0.0325894 71.307724 -0.0135498 C81.2790261 0.00817192 91.25000045 0.00120428 101.22129446 -0.02085543 C109.78965741 -0.03904945 118.35792204 -0.04154676 126.92629808 -0.03110075 C132.04014379 -0.02488158 137.1538359 -0.0239857 142.26767159 -0.0372467 C147.08340524 -0.04886111 151.89872012 -0.04067788 156.71440887 -0.01766968 C158.47553502 -0.01241024 160.2366968 -0.0138486 161.99780846 -0.02272034 C176.85425753 -0.09061885 188.20710323 2.27630791 199.56968689 12.50793457 C208.01464275 21.95563101 210.98924813 31.94634854 211.10093689 44.44152832 C210.46171223 48.13117067 209.54433481 49.2926598 206.56968689 51.50793457 C205.24968689 51.83793457 203.92968689 52.16793457 202.56968689 52.50793457 C202.56968689 57.78793457 202.56968689 63.06793457 202.56968689 68.50793457 C204.21968689 68.83793457 205.86968689 69.16793457 207.56968689 69.50793457 C209.35484314 70.66418457 209.35484314 70.66418457 210.56968689 72.50793457 C212.28723437 84.26771912 209.36432559 93.81289743 202.69468689 103.38293457 C200.34875488 106.4859028 198.14741032 109.02931585 195.00718689 111.32043457 C194.20281189 112.04230957 193.39843689 112.76418457 192.56968689 113.50793457 C192.82416074 115.51948973 193.1773101 117.51867552 193.56968689 119.50793457 C194.67877098 133.65957066 193.02932301 144.55202522 184.50328064 156.25012207 C182.60837931 158.46275433 180.68306495 160.10907327 178.38218689 161.88293457 C174.05515964 165.41944723 172.99340427 169.18914615 171.48374939 174.45324707 C168.92696304 182.99772111 164.20655924 189.71746974 158.56968689 196.50793457 C157.78593689 197.53918457 157.00218689 198.57043457 156.19468689 199.63293457 C152.72425193 203.43388715 148.86041068 206.65869166 144.56968689 209.50793457 C143.90968689 209.50793457 143.24968689 209.50793457 142.56968689 209.50793457 C142.56968689 213.46793457 142.56968689 217.42793457 142.56968689 221.50793457 C144.50070251 221.48473145 146.43171814 221.46152832 148.42124939 221.43762207 C150.34442117 221.42368604 152.26759433 221.40983246 154.19078064 221.39807129 C156.13746369 221.38336681 158.08405636 221.35792255 160.03062439 221.33215332 C178.88951204 221.23593451 200.01043496 224.09043282 214.58921814 237.34387207 C216.56184658 238.81498336 216.56184658 238.81498336 219.02281189 237.89074707 C221.56308318 236.51152002 223.92617536 235.00207472 226.31968689 233.38293457 C231.092158 230.47671336 235.03184873 229.17433273 240.56968689 230.50793457 C243.85742423 232.80935071 244.87281459 234.6543009 245.56968689 238.50793457 C245.65142034 240.75147394 245.67718966 242.99730349 245.66734314 245.24230957 C245.66412048 246.53781738 245.66089783 247.8333252 245.65757751 249.16809082 C245.64922287 250.53137274 245.64075793 251.89465399 245.63218689 253.25793457 C245.62716857 254.63683922 245.62260624 256.01574561 245.61851501 257.39465332 C245.60672782 260.76579116 245.59027324 264.13684085 245.56968689 267.50793457 C246.80054016 267.1896167 246.80054016 267.1896167 248.05625916 266.86486816 C249.13447937 266.58981445 250.21269958 266.31476074 251.32359314 266.03137207 C252.39166199 265.75728516 253.45973083 265.48319824 254.56016541 265.20080566 C259.38658509 264.08963676 262.93072722 263.7240843 267.44468689 265.88293457 C269.56968689 267.50793457 269.56968689 267.50793457 270.56968689 269.50793457 C270.70475692 272.01446167 270.78226531 274.49196778 270.80796814 277.00012207 C270.81603989 277.74247101 270.82411163 278.48481995 270.83242798 279.24966431 C270.84626405 280.8215705 270.85698835 282.39350669 270.86485291 283.9654541 C270.88207201 286.36691287 270.92595969 288.76699675 270.97007751 291.16809082 C270.98020418 292.69542445 270.98872037 294.22276978 270.99546814 295.75012207 C271.01297623 296.46691132 271.03048431 297.18370056 271.04852295 297.92221069 C271.03369506 301.33803627 270.82244953 303.17501132 268.73057556 305.93029785 C266.56968689 307.50793457 266.56968689 307.50793457 263.56968689 308.50793457 C263.23968689 313.78793457 262.90968689 319.06793457 262.56968689 324.50793457 C264.87968689 324.50793457 267.18968689 324.50793457 269.56968689 324.50793457 C279.86336771 326.32728281 290.31235403 332.02316706 296.56968689 340.50793457 C302.41874635 350.76430136 305.93100873 359.42429123 304.56968689 371.50793457 C302.38218689 374.82043457 302.38218689 374.82043457 299.56968689 376.50793457 C296.75718689 376.82043457 296.75718689 376.82043457 294.56968689 376.50793457 C294.46527283 377.39609863 294.36085876 378.2842627 294.25328064 379.19934082 C292.48673704 387.74941186 286.02034912 393.46169236 279.09703064 398.23059082 C276.24376768 399.67265726 273.73018493 400.1363811 270.56968689 400.50793457 C270.48718689 401.60105957 270.40468689 402.69418457 270.31968689 403.82043457 C269.56968689 407.50793457 269.56968689 407.50793457 267.69468689 409.44543457 C265.56968689 410.50793457 265.56968689 410.50793457 262.56968689 410.50793457 C262.56968689 415.78793457 262.56968689 421.06793457 262.56968689 426.50793457 C264.54968689 427.16793457 266.52968689 427.82793457 268.56968689 428.50793457 C270.60140955 431.55551856 270.82409209 432.19236178 270.86021423 435.62463379 C270.87297394 436.44914032 270.88573364 437.27364685 270.89888 438.12313843 C270.90221848 439.45443283 270.90221848 439.45443283 270.90562439 440.81262207 C270.91228119 441.72875275 270.91893799 442.64488342 270.92579651 443.58877563 C270.93592234 445.52714022 270.94061355 447.46553966 270.94029236 449.40393066 C270.94466038 452.36496691 270.98096598 455.32450636 271.01890564 458.28527832 C271.02477489 460.16938781 271.02874356 462.05350438 271.03062439 463.93762207 C271.04499542 464.82110321 271.05936646 465.70458435 271.07417297 466.61483765 C271.04541818 470.49729937 270.84804055 472.96995918 269.04234314 476.45983887 C265.79086155 479.15303388 262.58129783 479.97845483 258.54624939 480.84777832 C257.69894257 481.04744705 256.85163574 481.24711578 255.97865295 481.45283508 C253.05484315 482.13671817 250.12540506 482.79182785 247.19468689 483.44543457 C243.8926846 484.19700254 240.59175893 484.95316372 237.29100037 485.71017456 C234.7829806 486.28524395 232.27440775 486.85790511 229.7653656 487.42849731 C219.78604246 489.70927786 209.85775206 492.17218638 199.93293762 494.67860413 C192.82305736 496.47261326 185.70317527 498.22551375 178.58118629 499.97075939 C173.50340332 501.21717477 168.43142353 502.48068228 163.36930847 503.78939819 C119.72428847 515.03806502 81.12040432 515.55610907 37.52642441 504.07234573 C32.98228221 502.88758743 28.42305867 501.76383731 23.86485291 500.63464355 C18.34642819 499.26371413 12.82969234 497.88718859 7.31997681 496.48161316 C-4.05156438 493.58077816 -15.4462537 490.83370366 -26.89125061 488.23840332 C-28.30179557 487.91657535 -29.71228347 487.59449717 -31.12271118 487.27215576 C-36.33755824 486.08143443 -41.55243865 484.8914531 -46.77342224 483.72784424 C-50.22719129 482.95475087 -53.67470535 482.15817795 -57.12171936 481.35559082 C-58.62156876 481.03016548 -58.62156876 481.03016548 -60.15171814 480.69816589 C-64.18890848 479.73939295 -66.83827209 479.00883695 -70.03919983 476.30065918 C-71.77594209 472.81406832 -72.02454494 469.79350682 -71.99671936 465.97668457 C-72.00601723 464.90638 -72.00601723 464.90638 -72.01550293 463.81445312 C-72.02258015 462.31174071 -72.01946366 460.80894954 -72.00672913 459.30627441 C-71.99284952 457.01394813 -72.02696918 454.72569847 -72.06507874 452.43371582 C-72.06602996 450.96887108 -72.06417093 449.50402125 -72.05921936 448.03918457 C-72.07247757 447.35884155 -72.08573578 446.67849854 -72.09939575 445.97753906 C-72.02507558 442.15767905 -71.47890336 440.56931173 -69.07850647 437.53723145 C-66.43031311 435.50793457 -66.43031311 435.50793457 -63.43031311 435.50793457 C-63.46332081 432.90032611 -63.53042791 430.30130611 -63.61781311 427.69543457 C-63.62361389 426.95744629 -63.62941467 426.21945801 -63.63539124 425.45910645 C-63.68347826 423.01228795 -63.68347826 423.01228795 -64.43031311 419.50793457 C-66.75496047 417.53754501 -66.75496047 417.53754501 -69.43031311 416.50793457 C-71.43031311 414.50793457 -71.43031311 414.50793457 -71.55531311 411.88293457 C-71.51406311 411.09918457 -71.47281311 410.31543457 -71.43031311 409.50793457 C-72.70906311 409.19855957 -73.98781311 408.88918457 -75.30531311 408.57043457 C-82.64992956 406.07210835 -88.44645317 401.11334596 -92.18421936 394.32043457 C-93.14065635 392.24274377 -94.04616999 390.14035036 -94.88343811 388.01184082 C-96.92905169 384.70063297 -98.76536993 384.52861175 -102.43031311 383.50793457 C-104.27796936 382.25402832 -104.27796936 382.25402832 -105.43031311 380.50793457 C-107.23305912 369.22047082 -104.037603 358.8935537 -97.68031311 349.63293457 C-90.74966095 340.76577665 -81.66316939 334.96964273 -70.43812561 332.97668457 C-68.10904868 332.73915831 -65.76919548 332.61112056 -63.43031311 332.50793457 C-63.43031311 327.22793457 -63.43031311 321.94793457 -63.43031311 316.50793457 C-65.08031311 316.17793457 -66.73031311 315.84793457 -68.43031311 315.50793457 C-70.57966963 313.73024252 -71.31306288 312.31582557 -71.71327209 309.55825806 C-71.8627768 307.06887806 -71.89849384 304.59947816 -71.89906311 302.10559082 C-71.90667664 301.19087509 -71.91429016 300.27615936 -71.9221344 299.33372498 C-71.93292804 297.40134406 -71.93579149 295.46890484 -71.93128967 293.53649902 C-71.93031755 290.58392817 -71.97194183 287.63395825 -72.01625061 284.6817627 C-72.02145799 282.80221081 -72.0241458 280.92264991 -72.02406311 279.04309082 C-72.04045837 278.16274673 -72.05685364 277.28240265 -72.07374573 276.37538147 C-72.02406886 271.95733882 -71.85544219 270.07087185 -69.11585999 266.4432373 C-65.47881715 263.82225198 -62.6942644 263.83497732 -58.43031311 264.50793457 C-56.33156289 264.99178471 -54.23915658 265.50375358 -52.15296936 266.03918457 C-51.07926086 266.31311035 -50.00555237 266.58703613 -48.89930725 266.8692627 C-47.67715515 267.18540527 -47.67715515 267.18540527 -46.43031311 267.50793457 C-46.44078674 266.65562256 -46.45126038 265.80331055 -46.46205139 264.9251709 C-46.49623966 261.74760952 -46.52126384 258.57014225 -46.54017639 255.39245605 C-46.55020237 254.02002874 -46.56382667 252.64762262 -46.58119202 251.27526855 C-46.60558938 249.2969293 -46.61575795 247.3184309 -46.62562561 245.33996582 C-46.64133606 243.55682983 -46.64133606 243.55682983 -46.65736389 241.7376709 C-46.37817121 237.76623001 -45.50275348 234.88029471 -43.04750061 231.73840332 C-40.61030985 229.88401905 -38.16145977 229.80948611 -35.17640686 229.86340332 C-30.90082631 230.86691796 -27.46922474 233.29730813 -23.94837952 235.83728027 C-22.18324991 237.11558934 -22.18324991 237.11558934 -19.43031311 238.50793457 C-17.28689258 238.09477593 -17.28689258 238.09477593 -15.43031311 236.50793457 C-14.5369928 235.92398926 -13.64367249 235.34004395 -12.72328186 234.73840332 C-11.69847717 234.06422363 -10.67367249 233.39004395 -9.61781311 232.69543457 C10.57909024 220.00582868 33.59605151 221.1931609 56.56968689 221.50793457 C56.65374687 213.73922262 56.65374687 213.73922262 53.60093689 206.93762207 C52.76562439 206.4245752 51.93031189 205.91152832 51.06968689 205.38293457 C39.21280576 197.14054427 30.5214188 185.16745572 26.69468689 171.19543457 C24.92992668 165.2579969 21.82712504 162.68956822 17.11265564 158.85949707 C10.74648897 152.97250424 6.13540199 144.04938758 5.38414001 135.36242676 C5.30247832 133.05299406 5.29656098 130.75609861 5.31968689 128.44543457 C5.30808533 127.28044434 5.30808533 127.28044434 5.29624939 126.09191895 C5.31177686 121.50743311 5.8303999 117.82164237 7.56968689 113.50793457 C6.59128845 112.69002441 6.59128845 112.69002441 5.59312439 111.85559082 C-2.72911498 104.67489756 -9.08514741 97.52719234 -11.43031311 86.50793457 C-11.88844957 80.28302082 -11.87764374 74.07131393 -11.86390686 67.83215332 C-11.86847302 66.01613673 -11.87377989 64.20012187 -11.87979126 62.3841095 C-11.88869078 58.5941766 -11.88633206 54.80445484 -11.87635803 51.01452637 C-11.86482091 46.15760123 -11.88516795 41.30139804 -11.91427517 36.44456768 C-11.9326051 32.70163862 -11.93235202 28.95888407 -11.92663765 25.2159214 C-11.92648432 23.42454827 -11.93253864 21.6331634 -11.94492912 19.84183311 C-11.95979213 17.34294215 -11.94920099 14.84540587 -11.93202209 12.34655762 C-11.94169006 11.60831757 -11.95135803 10.87007751 -11.96131897 10.10946655 C-11.91572969 6.94573872 -11.72689314 4.92227488 -9.86338234 2.31883717 C-6.62268424 -0.09317336 -3.88563757 -0.04948273 0 0 Z " fill="#3A519C" transform="translate(156.43031311035156,-0.5079345703125)"/>
<path d="M0 0 C0.02187378 0.88522339 0.02187378 0.88522339 0.04418945 1.78833008 C0.11868844 4.46371229 0.21533995 7.13784892 0.3125 9.8125 C0.33505859 10.74126953 0.35761719 11.67003906 0.38085938 12.62695312 C0.41630859 13.51962891 0.45175781 14.41230469 0.48828125 15.33203125 C0.51446533 16.15421143 0.54064941 16.9763916 0.56762695 17.82348633 C1.10759637 20.54162711 1.79339861 21.34769639 4 23 C5.65 23.66 7.3 24.32 9 25 C9 30.28 9 35.56 9 41 C11.31 41 13.62 41 16 41 C26.29368082 42.81934824 36.74266714 48.51523249 43 57 C48.84905946 67.25636679 52.36132185 75.91635666 51 88 C48.8125 91.3125 48.8125 91.3125 46 93 C43.1875 93.3125 43.1875 93.3125 41 93 C40.89558594 93.88816406 40.79117188 94.77632813 40.68359375 95.69140625 C38.91705015 104.24147729 32.45066223 109.95375779 25.52734375 114.72265625 C22.67408079 116.16472269 20.16049804 116.62844653 17 117 C16.9175 118.093125 16.835 119.18625 16.75 120.3125 C16 124 16 124 14.125 125.9375 C12 127 12 127 9 127 C9 132.28 9 137.56 9 143 C7.02 143.99 5.04 144.98 3 146 C0.20787489 148.79212511 0.64861925 151.45304289 0.5859375 155.1953125 C0.56657135 155.90275604 0.5472052 156.61019958 0.5272522 157.33908081 C0.46742348 159.60093085 0.42105899 161.8628317 0.375 164.125 C0.33682314 165.6575744 0.29777158 167.19012728 0.2578125 168.72265625 C0.16171961 172.48159624 0.07770151 176.24063668 0 180 C-20.0995611 184.73640202 -40.20300646 189.45539212 -60.31445312 194.14111328 C-65.29240295 195.30118399 -70.27002973 196.46263623 -75.24755859 197.62451172 C-77.72951088 198.20358009 -80.21160509 198.78204052 -82.69384766 199.35986328 C-88.56239892 200.72663936 -94.42939059 202.09932483 -100.29180908 203.49215698 C-103.06705698 204.15114966 -105.84306576 204.80690333 -108.61914062 205.46240234 C-110.58278319 205.92750074 -112.5453121 206.39729304 -114.5078125 206.8671875 C-115.69375 207.14691406 -116.8796875 207.42664063 -118.1015625 207.71484375 C-119.14650879 207.96355225 -120.19145508 208.21226074 -121.26806641 208.46850586 C-124 209 -124 209 -128 209 C-128 149.93 -128 90.86 -128 30 C-106.00386301 24.2115429 -106.00386301 24.2115429 -95.3125 21.75 C-94.07048828 21.46189453 -92.82847656 21.17378906 -91.54882812 20.87695312 C-79.8572116 18.17125799 -68.14620921 15.55098858 -56.4364624 12.92514038 C-44.92748027 10.34389079 -33.42538312 7.73619134 -21.9375 5.0625 C-20.1112207 4.63904297 -20.1112207 4.63904297 -18.24804688 4.20703125 C-11.4999206 2.63227959 -11.4999206 2.63227959 -4.81640625 0.80859375 C-2 0 -2 0 0 0 Z " fill="#F6664F" transform="translate(410,283)"/>
<path d="M0 0 C8.228008 1.35118914 16.29809875 3.21907587 24.38647461 5.22607422 C35.39523671 7.95505695 46.41740187 10.58544486 57.5 13 C68.32986851 15.36200638 79.09743715 17.9382548 89.86132812 20.58084106 C100.01034304 23.07056571 110.17955002 25.42027968 120.41308594 27.54125977 C121.27708008 27.72229248 122.14107422 27.9033252 123.03125 28.08984375 C123.77955078 28.24316162 124.52785156 28.39647949 125.29882812 28.55444336 C127 29 127 29 128 30 C128.09711942 32.30356433 128.1218657 34.61017658 128.12025452 36.91578674 C128.12153615 38.01350219 128.12153615 38.01350219 128.12284368 39.1333937 C128.12450066 41.60400879 128.11897359 44.0745571 128.11352539 46.54516602 C128.11324354 48.30883787 128.11340121 50.07250985 128.1139679 51.83618164 C128.11425595 56.63969843 128.10835792 61.44319047 128.10139394 66.24670148 C128.09516174 71.26089685 128.09455671 76.27509273 128.09336853 81.28929138 C128.09025482 90.7913676 128.08204089 100.29343238 128.07201904 109.79550356 C128.06085914 120.61031339 128.05534776 131.42512375 128.05032361 142.2399379 C128.03985831 164.49329833 128.0222581 186.74664845 128 209 C124.84935171 208.38608347 121.69998277 207.76582307 118.55078125 207.14453125 C117.67071411 206.97312622 116.79064697 206.80172119 115.88391113 206.62512207 C110.25661992 205.51107663 104.7172815 204.21268227 99.1875 202.6875 C98.34791748 202.45957764 97.50833496 202.23165527 96.64331055 201.99682617 C95.93988525 201.80580322 95.23645996 201.61478027 94.51171875 201.41796875 C87.55421581 199.58165067 80.52342969 198.05942403 73.5 196.5 C64.17140697 194.42616051 54.88461988 192.27043086 45.65844727 189.77563477 C30.56034324 185.70074303 15.27488951 182.33846791 0 179 C-0.01401855 177.98631348 -0.01401855 177.98631348 -0.02832031 176.95214844 C-0.08207301 173.8840289 -0.16570992 170.81742613 -0.25 167.75 C-0.26417969 166.68652344 -0.27835938 165.62304688 -0.29296875 164.52734375 C-0.32519531 163.50253906 -0.35742188 162.47773438 -0.390625 161.421875 C-0.41157227 160.47924805 -0.43251953 159.53662109 -0.45410156 158.56542969 C-1.15091169 155.29079603 -2.43364386 154.08479187 -5 152 C-7.1381966 151.2127322 -7.1381966 151.2127322 -9 151 C-9.01417969 149.87980469 -9.02835938 148.75960937 -9.04296875 147.60546875 C-9.08986994 146.13277131 -9.13811734 144.66011632 -9.1875 143.1875 C-9.19330078 142.44951172 -9.19910156 141.71152344 -9.20507812 140.95117188 C-9.25316515 138.50435338 -9.25316515 138.50435338 -10 135 C-12.32464736 133.02961044 -12.32464736 133.02961044 -15 132 C-17 130 -17 130 -17.125 127.375 C-17.08375 126.59125 -17.0425 125.8075 -17 125 C-18.918125 124.5359375 -18.918125 124.5359375 -20.875 124.0625 C-28.21961645 121.56417378 -34.01614006 116.60541139 -37.75390625 109.8125 C-38.71034324 107.7348092 -39.61585688 105.63241579 -40.453125 103.50390625 C-42.49873858 100.1926984 -44.33505682 100.02067718 -48 99 C-49.84765625 97.74609375 -49.84765625 97.74609375 -51 96 C-52.80274601 84.71253625 -49.60728989 74.38561913 -43.25 65.125 C-36.31934783 56.25784208 -27.23285627 50.46170816 -16.0078125 48.46875 C-13.67873557 48.23122374 -11.33888237 48.10318599 -9 48 C-9 42.72 -9 37.44 -9 32 C-6.69 31.01 -4.38 30.02 -2 29 C-0.63160637 26.26321275 -0.78365182 23.95735576 -0.68359375 20.8984375 C-0.62075195 19.08085937 -0.62075195 19.08085937 -0.55664062 17.2265625 C-0.51732422 15.95554687 -0.47800781 14.68453125 -0.4375 13.375 C-0.37272461 11.456875 -0.37272461 11.456875 -0.30664062 9.5 C-0.20030114 6.33344652 -0.09827167 3.16681247 0 0 Z " fill="#F7654F" transform="translate(102,284)"/>
<path d="M0 0 C21.69713551 -0.14039126 43.39419572 -0.24607924 65.09169388 -0.31087303 C75.16707832 -0.34176256 85.24217994 -0.38384901 95.31738281 -0.45263672 C104.10272441 -0.51258921 112.8878611 -0.55118476 121.67340159 -0.56453097 C126.32196734 -0.572328 130.96994705 -0.59054946 135.61832428 -0.63438034 C140.00152096 -0.67537247 144.38389515 -0.68761593 148.76726532 -0.67864609 C150.36837752 -0.68028493 151.96951973 -0.69206119 153.57046509 -0.71523285 C163.4132293 -0.85060106 171.73129212 -0.00219239 180 6 C184.6805126 11.34408141 188.0499292 17.37343419 188.375 24.5625 C188.67762646 27.75335093 188.87475822 28.82725271 190.8125 31.5 C193.13787515 33.28140581 193.13787515 33.28140581 197 34 C197 39.61 197 45.22 197 51 C194.69 51.99 192.38 52.98 190 54 C188.93478948 56.74793438 188.37901652 58.78141173 187.9375 61.625 C186.60565165 68.22853142 185.02046191 74.15673087 180 79 C177.30859375 80.2265625 177.30859375 80.2265625 175 81 C172.18491327 78.73174875 171.09129769 77.57772587 170.51757812 73.94726562 C170.52208984 72.77873047 170.52660156 71.61019531 170.53125 70.40625 C170.51707031 69.12878906 170.50289062 67.85132812 170.48828125 66.53515625 C170.49073933 64.51412113 170.50003119 62.49318203 170.50927734 60.47216797 C170.51166061 58.51265019 170.49049913 56.55314852 170.46875 54.59375 C170.47326172 53.42521484 170.47777344 52.25667969 170.48242188 51.05273438 C170.20874053 47.96199447 170.20874053 47.96199447 168.4375 45.62109375 C165.17299991 43.44999193 162.32534819 43.42413966 158.53125 43.46875 C157.813927 43.4649231 157.096604 43.46109619 156.35754395 43.45715332 C154.84463086 43.45443773 153.33167055 43.46177445 151.81884766 43.47851562 C149.50707024 43.49993449 147.19839987 43.47870649 144.88671875 43.453125 C143.41405566 43.45576834 141.9413945 43.46089347 140.46875 43.46875 C139.78010864 43.46065308 139.09146729 43.45255615 138.38195801 43.44421387 C135.03074287 43.50947426 133.26640508 43.79736096 130.56835938 45.84960938 C128.7896933 47.9670634 128.7896933 47.9670634 128.4375 50.9375 C129.21855422 55.18990632 130.55842853 56.38855632 134 59 C137.43537482 59.74315073 140.80655823 59.79020072 144.3125 59.8125 C145.24384766 59.83763672 146.17519531 59.86277344 147.13476562 59.88867188 C149.42272595 59.94733752 151.71140749 59.97658184 154 60 C154 62.97 154 65.94 154 69 C152.74445313 69.02578125 151.48890625 69.0515625 150.1953125 69.078125 C137.07125287 69.33012929 137.07125287 69.33012929 125 74 C124.07832031 74.5465625 123.15664063 75.093125 122.20703125 75.65625 C114.50105675 80.73116978 110.08878096 86.82243808 106 95 C105.2575 94.835 104.515 94.67 103.75 94.5 C96.4467983 93.52623977 89.24137075 93.64224298 82 95 C81.57589844 94.28714844 81.15179688 93.57429688 80.71484375 92.83984375 C73.37484028 80.85386007 66.10390911 74.46920348 52.62109375 69.83984375 C48.64538293 68.91775332 45.13799666 68.80286732 41.0625 68.875 C40.37865234 68.88402344 39.69480469 68.89304687 38.99023438 68.90234375 C37.32666713 68.92561042 35.66328369 68.96146833 34 69 C34 66.03 34 63.06 34 60 C34.88061096 59.98969254 35.76122192 59.97938507 36.66851807 59.96876526 C44.96724306 59.87078965 53.26589689 59.76827502 61.56450272 59.66066074 C65.83089902 59.60549532 70.09730226 59.55208557 74.36376953 59.50268555 C78.48109593 59.45494782 82.59834029 59.4026017 86.71556854 59.34705925 C88.28641467 59.3266783 89.85728325 59.30795825 91.42816925 59.29092598 C93.62830212 59.26678748 95.82828111 59.23674615 98.02832031 59.20532227 C99.9069577 59.18200584 99.9069577 59.18200584 101.82354736 59.15821838 C104.41082945 59.02934645 106.54268904 58.76529095 109 58 C109.27719381 56.42120045 109.52074143 54.83646933 109.75 53.25 C109.95882812 51.92742187 109.95882812 51.92742187 110.171875 50.578125 C110.21963432 47.91819688 110.21963432 47.91819688 108.49560547 45.87121582 C105.06640134 43.29998367 102.01866295 43.43880094 97.8984375 43.48242188 C97.08497864 43.4754126 96.27151978 43.46840332 95.43341064 43.46118164 C92.74692558 43.44358941 90.0614956 43.45522837 87.375 43.46875 C85.50699664 43.46605543 83.63899465 43.4621733 81.77099609 43.45715332 C77.85696045 43.45125662 73.94329005 43.45982672 70.02929688 43.47851562 C65.01190111 43.50130532 59.99536119 43.48818315 54.97799683 43.46422577 C51.12094676 43.44977241 47.26409963 43.45437165 43.40704346 43.46473694 C41.55706684 43.46740551 39.70707181 43.4641299 37.8571167 43.45481873 C35.27143543 43.44466063 32.68714049 43.4601429 30.1015625 43.48242188 C29.33676575 43.47432495 28.57196899 43.46622803 27.78399658 43.45788574 C24.30626728 43.51340726 22.3500753 43.73964821 19.52380371 45.84155273 C17.41096627 48.83435828 17.51719426 50.95331413 17.53125 54.59375 C17.50998047 56.50994141 17.50998047 56.50994141 17.48828125 58.46484375 C17.48991717 59.80990051 17.49384642 61.15495632 17.5 62.5 C17.51206374 65.1368803 17.4980232 67.76900039 17.46875 70.40625 C17.47326172 71.57478516 17.47777344 72.74332031 17.48242188 73.94726562 C16.90870231 77.57772587 15.81508673 78.73174875 13 81 C10.03448275 79.680569 8.07001553 78.32028447 5.9375 75.875 C5.45152344 75.33617188 4.96554688 74.79734375 4.46484375 74.2421875 C-0.7289828 66.29217033 -0.39991108 58.41503245 -0.29296875 49.21875 C-0.28736409 47.79529266 -0.28309811 46.37182948 -0.28010559 44.94836426 C-0.2687251 41.22631473 -0.23931791 37.50462395 -0.20599365 33.78271484 C-0.17514493 29.97498424 -0.16156883 26.16719491 -0.14648438 22.359375 C-0.11444045 14.90608756 -0.06332813 7.45309431 0 0 Z " fill="#A0D31D" transform="translate(162,17)"/>
<path d="M0 0 C2.10219744 0.02912241 4.20188307 0.02052751 6.30419922 0.00756836 C20.10548632 0.0280877 31.1722516 3.19642577 41.65966797 12.46655273 C49.89298888 21.1692316 53.41170175 32.69904335 53.31982422 44.38061523 C52.97216797 47.46655273 52.97216797 47.46655273 50.78466797 50.77905273 C47.81098898 52.56326013 46.36731986 52.95157443 42.97216797 52.46655273 C42.86775391 53.3547168 42.76333984 54.24288086 42.65576172 55.15795898 C40.88921812 63.70803002 34.4228302 69.42031052 27.49951172 74.18920898 C24.64624876 75.63127543 22.13266601 76.09499926 18.97216797 76.46655273 C18.88966797 77.55967773 18.80716797 78.65280273 18.72216797 79.77905273 C17.97216797 83.46655273 17.97216797 83.46655273 16.296875 85.17211914 C13.36795146 86.80299003 11.37153148 86.85417604 8.02685547 86.86499023 C6.86669922 86.86885742 5.70654297 86.87272461 4.51123047 86.87670898 C2.69751953 86.85930664 2.69751953 86.85930664 0.84716797 86.84155273 C-0.93173828 86.85895508 -0.93173828 86.85895508 -2.74658203 86.87670898 C-16.51889486 86.8311053 -27.94813806 82.87103764 -38.17626953 73.47827148 C-43.96260714 67.19142788 -49.02783203 58.19427328 -49.02783203 49.46655273 C-50.00365234 49.68311523 -50.97947266 49.89967773 -51.98486328 50.12280273 C-53.25716797 50.40124023 -54.52947266 50.67967773 -55.84033203 50.96655273 C-57.10490234 51.24499023 -58.36947266 51.52342773 -59.67236328 51.81030273 C-63.02783203 52.46655273 -63.02783203 52.46655273 -66.02783203 52.46655273 C-65.84220703 53.79686523 -65.84220703 53.79686523 -65.65283203 55.15405273 C-66.02783203 58.46655273 -66.02783203 58.46655273 -68.38330078 60.99780273 C-72.65575013 64.335024 -77.50073791 65.19931668 -82.71533203 66.27905273 C-83.64539063 66.4949707 -84.57544922 66.71088867 -85.53369141 66.93334961 C-101.81914917 70.48838717 -101.81914917 70.48838717 -107.30761719 67.0300293 C-109.90009986 63.16669292 -109.61985859 59.62210083 -109.59423828 55.06420898 C-109.60043686 54.14949326 -109.60663544 53.23477753 -109.61302185 52.29234314 C-109.62011811 50.35994531 -109.61694937 48.42748631 -109.60424805 46.49511719 C-109.59039461 43.54238992 -109.62443947 40.59283985 -109.66259766 37.64038086 C-109.66354901 35.76082279 -109.66168918 33.88126077 -109.65673828 32.00170898 C-109.66999649 31.1213649 -109.6832547 30.24102081 -109.69691467 29.33399963 C-109.63218459 25.0597599 -109.43681884 23.0351975 -106.88208008 19.4831543 C-103.75301501 17.27238725 -101.47070712 16.43866423 -97.73095703 15.66577148 C-96.52439453 15.41118164 -95.31783203 15.1565918 -94.07470703 14.89428711 C-92.82173828 14.65000977 -91.56876953 14.40573242 -90.27783203 14.15405273 C-89.04033203 13.89043945 -87.80283203 13.62682617 -86.52783203 13.35522461 C-79.93183974 12.00444959 -73.76136328 10.9571768 -67.02783203 11.46655273 C-64.46533203 13.34155273 -64.46533203 13.34155273 -63.02783203 15.46655273 C-63.02783203 16.12655273 -63.02783203 16.78655273 -63.02783203 17.46655273 C-58.72779065 16.651527 -54.44033694 15.78245753 -50.15283203 14.90405273 C-48.34685547 14.56277344 -48.34685547 14.56277344 -46.50439453 14.21459961 C-39.23282327 12.69310236 -34.37310392 10.65514395 -28.49169922 6.16821289 C-19.90294844 0.23642604 -10.07692087 -0.15210892 0 0 Z " fill="#3B529C" transform="translate(408.02783203125,323.533447265625)"/>
<path d="M0 0 C1.22009766 0.02707031 2.44019531 0.05414063 3.69726562 0.08203125 C16.45933137 0.50720485 28.76638059 3.57680478 38.1875 12.75 C40.77007233 15.94438901 43.0289904 19.25648802 45.1875 22.75 C45.62835938 23.45511719 46.06921875 24.16023438 46.5234375 24.88671875 C51.28410562 34.28988237 50.599115 47.36379943 48.375 57.42578125 C44.02828463 69.06230053 34.88174172 77.26634646 24.05761719 82.84838867 C16.73694035 86.10948932 9.81595982 86.50844322 1.875 86.6875 C0.62654297 86.74228516 -0.62191406 86.79707031 -1.90820312 86.85351562 C-12.08013384 87.16440037 -12.08013384 87.16440037 -16.8125 83.75 C-18.8125 81.75 -18.8125 81.75 -18.9375 79.125 C-18.89625 78.34125 -18.855 77.5575 -18.8125 76.75 C-20.730625 76.2859375 -20.730625 76.2859375 -22.6875 75.8125 C-30.03211645 73.31417378 -35.82864006 68.35541139 -39.56640625 61.5625 C-40.52284324 59.4848092 -41.42835688 57.38241579 -42.265625 55.25390625 C-44.31123858 51.9426984 -46.14755682 51.77067718 -49.8125 50.75 C-51.66015625 49.49609375 -51.66015625 49.49609375 -52.8125 47.75 C-54.61524601 36.46253625 -51.41978989 26.13561913 -45.0625 16.875 C-38.02844132 7.87554257 -29.0317658 2.53261998 -17.8046875 0.09765625 C-11.90623624 -0.61649876 -5.92048711 -0.20447522 0 0 Z " fill="#3A519B" transform="translate(103.8125,332.25)"/>
<path d="M0 0 C0.21914063 0.75023437 0.43828125 1.50046875 0.6640625 2.2734375 C4.77323084 15.53636295 10.48513747 25.20956639 23 31.8125 C31.28166997 35.91136706 39.42054148 36.36434569 48.5 36.625 C49.60859375 36.66367187 50.7171875 36.70234375 51.859375 36.7421875 C54.57266449 36.83574921 57.28630853 36.9189306 60 37 C60 42.28 60 47.56 60 53 C58.02 53.99 56.04 54.98 54 56 C50.80049616 59.13810611 50.55098882 61.86180567 50.3125 66.25 C50.24675781 67.32765625 50.18101562 68.4053125 50.11328125 69.515625 C50.07589844 70.33546875 50.03851563 71.1553125 50 72 C47.12605502 72.81639318 44.2509487 73.62822141 41.375 74.4375 C40.56675781 74.66759766 39.75851562 74.89769531 38.92578125 75.13476562 C19.34951931 80.62566836 0.33956037 79.22927861 -17.73828125 69.921875 C-20.74267508 68.15162139 -23.23921004 66.26832183 -25.875 64 C-29.06253438 61.36911225 -29.52852309 60.99239553 -33.875 61.0625 C-34.51695312 61.21074219 -35.15890625 61.35898437 -35.8203125 61.51171875 C-40.16664152 62.48535876 -44.59311982 62.61442079 -49 62 C-51.75 59.9375 -51.75 59.9375 -53 57 C-53.07974177 52.53446105 -52.45819454 50.5820309 -49.6875 47.0625 C-47 45 -47 45 -43 45 C-43.40992188 44.11699219 -43.81984375 43.23398437 -44.2421875 42.32421875 C-47.58199369 34.8855595 -49.9298552 28.14301619 -51 20 C-44.00643614 17.47034604 -37.06859667 15.90330364 -29.75390625 14.62695312 C-24.92793701 13.69828433 -21.38302038 12.82920614 -18 9 C-17.11406002 5.86136296 -17.11406002 5.86136296 -17 3 C-15.10614563 2.49255577 -13.20981334 1.99435426 -11.3125 1.5 C-9.72888672 1.08234375 -9.72888672 1.08234375 -8.11328125 0.65625 C-5.28857328 0.0608285 -2.87163292 -0.12786492 0 0 Z " fill="#F69B8D" transform="translate(359,373)"/>
<path d="M0 0 C18.17677357 -0.14048248 36.35340525 -0.24612332 54.53060532 -0.31087303 C62.97159784 -0.34174353 71.41225205 -0.38379264 79.85302734 -0.45263672 C87.21445113 -0.51264858 94.57562976 -0.55119857 101.93729138 -0.56453097 C105.83137461 -0.57231823 109.72475682 -0.59047471 113.6186142 -0.63438034 C117.29270215 -0.67546763 120.9658084 -0.68759769 124.64010429 -0.67864609 C126.61316918 -0.68105332 128.58613003 -0.7131517 130.55891418 -0.746521 C139.14500424 -0.68764791 145.88969138 1.02031267 153 6 C158.4286718 12.16925152 161.11391071 18.57100907 161.55859375 26.71875 C162.11344227 29.58628571 163.4629366 31.53906746 165 34 C147.86626318 34.11709751 130.73265226 34.20511686 113.59860611 34.25906086 C105.6419355 34.28478014 97.68551434 34.31980948 89.72900391 34.37719727 C82.78948245 34.42722573 75.85014177 34.45933657 68.91044497 34.47044247 C65.24000829 34.47692864 61.57008849 34.49203909 57.89981842 34.52865028 C53.79008108 34.569308 49.68122718 34.56993708 45.57128906 34.56762695 C44.37078415 34.58560333 43.17027924 34.60357971 41.93339539 34.62210083 C29.23018067 34.54521202 19.32033177 29.81495322 10.1328125 21.26171875 C4.78643939 15.72030628 0 7.88373951 0 0 Z " fill="#C3F136" transform="translate(189,17)"/>
<path d="M0 0 C1.14831299 0.00424484 1.14831299 0.00424484 2.31982422 0.00857544 C4.73421724 0.01965602 7.14822154 0.04473649 9.5625 0.0703125 C11.21223418 0.08035802 12.86197424 0.0894811 14.51171875 0.09765625 C18.52879268 0.11955538 22.54558073 0.15399925 26.5625 0.1953125 C26.8200708 1.28070313 27.0776416 2.36609375 27.34301758 3.484375 C27.69321867 4.92976106 28.04374027 6.37506949 28.39453125 7.8203125 C28.56279419 8.53316406 28.73105713 9.24601563 28.90441895 9.98046875 C31.53408295 20.73342073 36.44376699 28.75082331 45.5625 35.1953125 C56.86073409 41.93726469 70.36875276 43.48880643 83.1953125 40.2890625 C92.90783036 36.41399144 101.34481785 30.41194812 106.5625 21.1953125 C109.31831079 14.44104539 111.17420732 7.34432796 112.5625 0.1953125 C117.27228559 0.06969245 121.98105161 -0.01995227 126.69213867 -0.0793457 C128.28736396 -0.10415854 129.88247977 -0.13802114 131.47729492 -0.18188477 C146.03598113 -0.57164487 157.66171366 2.08671595 170.5625 9.1953125 C170.5625 9.8553125 170.5625 10.5153125 170.5625 11.1953125 C169.91514893 11.55657227 169.26779785 11.91783203 168.60083008 12.29003906 C154.85830137 19.96288024 141.14772955 27.68596427 127.49414062 35.51611328 C124.14907585 37.43211557 120.80132438 39.34338964 117.453125 41.25390625 C116.20613056 41.9656479 114.95914164 42.67739923 113.7121582 43.38916016 C111.88550315 44.43178006 110.05878375 45.47428585 108.23178101 46.51629639 C106.52791118 47.48819012 104.82449923 48.46088641 103.12109375 49.43359375 C102.01910645 50.05484131 100.91711914 50.67608887 99.78173828 51.31616211 C97.67583467 52.54543104 95.60326278 53.83415101 93.57373047 55.18579102 C85.71317645 60.30583016 79.14444564 61.54935803 69.8125 61.5078125 C69.13819946 61.50790314 68.46389893 61.50799377 67.76916504 61.50808716 C53.63885113 61.37498995 44.04057797 56.18919832 32.59179688 48.21826172 C27.28958122 44.67746877 21.66653447 41.72572478 16.0625 38.6953125 C6.18264212 33.25727524 -3.59789738 27.66868951 -13.31054688 21.9375 C-19.61659723 18.22279326 -25.99178195 14.66206777 -32.4375 11.1953125 C-29.34845705 7.96690803 -26.85484645 6.24372882 -22.6875 4.5703125 C-21.70265625 4.16554687 -20.7178125 3.76078125 -19.703125 3.34375 C-12.96922035 0.9756065 -7.08695342 -0.10100288 0 0 Z " fill="#9FD31D" transform="translate(186.4375,238.8046875)"/>
<path d="M0 0 C0.01458252 0.59014893 0.02916504 1.18029785 0.04418945 1.78833008 C0.11868844 4.46371229 0.21533995 7.13784892 0.3125 9.8125 C0.33505859 10.74126953 0.35761719 11.67003906 0.38085938 12.62695312 C0.41630859 13.51962891 0.45175781 14.41230469 0.48828125 15.33203125 C0.51446533 16.15421143 0.54064941 16.9763916 0.56762695 17.82348633 C1.10759637 20.54162711 1.79339861 21.34769639 4 23 C5.65 23.66 7.3 24.32 9 25 C9 30.28 9 35.56 9 41 C6.50179687 41.03867187 6.50179687 41.03867187 3.953125 41.078125 C-15.46243736 41.0638581 -15.46243736 41.0638581 -32.375 49.4375 C-40.29724924 55.47349942 -55.02910769 58.90702205 -65 58 C-65.5775 57.175 -66.155 56.35 -66.75 55.5 C-68.88071669 52.55608184 -68.88071669 52.55608184 -72.9296875 52.6875 C-78.58530802 52.84649335 -83.90454006 54.14156364 -89.375 55.5 C-91.31964619 55.97150661 -93.26493321 56.4403803 -95.2109375 56.90625 C-96.05962402 57.11572266 -96.90831055 57.32519531 -97.78271484 57.54101562 C-100 58 -100 58 -103 58 C-103 46.78 -103 35.56 -103 24 C-87.7472332 20.10567656 -72.49773818 16.37926224 -57.125 13 C-56.37155304 12.83433533 -55.61810608 12.66867065 -54.84182739 12.49798584 C-54.08779633 12.33220032 -53.33376526 12.16641479 -52.55688477 11.99560547 C-42.41924673 9.76589286 -32.29634859 7.48190844 -22.1875 5.125 C-20.95467285 4.83882813 -19.7218457 4.55265625 -18.45166016 4.2578125 C-11.59351056 2.65727202 -11.59351056 2.65727202 -4.80078125 0.8046875 C-2 0 -2 0 0 0 Z " fill="#F69B8D" transform="translate(410,283)"/>
<path d="M0 0 C2.85398975 1.53637238 3.81148583 2.42917205 4.8359375 5.53125 C5.01382813 6.5109375 5.19171875 7.490625 5.375 8.5 C7.68813251 18.74210544 12.5654777 27.56498048 21 34 C29.6452074 39.16870589 38.03545295 41.95110031 48 43 C46.66656133 48.03827679 44.36428384 51.55034532 41 55.4375 C40.51088135 56.00662109 40.0217627 56.57574219 39.51782227 57.16210938 C35.219554 62.0142103 30.62350761 65.74569671 25 69 C24.19949219 69.46921875 23.39898437 69.9384375 22.57421875 70.421875 C8.86472066 77.85605259 -6.62978999 79.11373735 -21.671875 75.16796875 C-37.85422701 69.48895085 -49.23747222 59.62492817 -58 45 C-58 44.34 -58 43.68 -58 43 C-57.00033203 42.85304688 -57.00033203 42.85304688 -55.98046875 42.703125 C-43.242575 40.63655762 -31.20551715 36.77954432 -22.859375 26.31640625 C-18.70157 20.01855456 -15.37215675 13.78359367 -14.625 6.1875 C-14 3 -14 3 -12 1.0625 C-8.00198344 -0.3534642 -4.19377591 -0.76523281 0 0 Z " fill="#F7DF09" transform="translate(261,128)"/>
<path d="M0 0 C1.12857422 -0.01160156 2.25714844 -0.02320313 3.41992188 -0.03515625 C13.45568254 -0.00012742 20.96936366 1.44504629 28.33984375 8.5078125 C33.80628887 14.43289361 34.65781641 19.61064169 35.47265625 27.484375 C36.10056381 30.56153789 36.55190899 31.56881942 39.0625 33.375 C40.5475 33.87 40.5475 33.87 42.0625 34.375 C41.90867621 41.45089447 38.68249717 46.15348421 34.0625 51.375 C28.84098421 55.99499717 24.13839447 59.22117621 17.0625 59.375 C16.77375 58.570625 16.485 57.76625 16.1875 56.9375 C15.32987432 54.2423532 15.32987432 54.2423532 13.0625 53.375 C11.29388039 53.26884628 9.52168517 53.21960486 7.75 53.19921875 C6.67363281 53.17537109 5.59726562 53.15152344 4.48828125 53.12695312 C2.23585894 53.08457574 -0.01679741 53.05301028 -2.26953125 53.03320312 C-12.17944023 52.7804593 -20.87596418 50.76497934 -27.9375 43.375 C-33.28166279 36.99602585 -33.77042208 30.14428008 -33.34765625 22.125 C-32.47776239 14.17168472 -29.21270849 10.12261087 -23.328125 4.91796875 C-15.76925041 0.03928335 -8.77137491 -0.08986041 0 0 Z " fill="#F9BA06" transform="translate(408.9375,340.625)"/>
<path d="M0 0 C1.36638549 -0.01645276 2.73268879 -0.04360022 4.09863281 -0.08203125 C14.42846893 -0.37053912 21.88096847 0.67190588 29.94311523 7.37744141 C30.45874023 8.00779297 30.97436523 8.63814453 31.50561523 9.28759766 C32.04186523 9.91537109 32.57811523 10.54314453 33.13061523 11.18994141 C37.30651693 17.75037788 37.08905507 24.8406623 36.50561523 32.35009766 C34.68814822 38.87159696 30.52308937 44.81658046 24.7421875 48.4621582 C16.87447612 52.54900978 8.66599164 51.83777538 0.01538086 51.75048828 C-1.73162109 51.76692383 -1.73162109 51.76692383 -3.51391602 51.78369141 C-4.56683838 51.77394287 -5.61976074 51.76419434 -6.70458984 51.75415039 C-10.45798529 52.55593899 -11.4417012 54.20237255 -13.49438477 57.35009766 C-13.82438477 58.01009766 -14.15438477 58.67009766 -14.49438477 59.35009766 C-22.64222463 57.37884608 -28.02608933 53.73440197 -33.49438477 47.35009766 C-35.83150759 43.47502721 -37.7564015 39.52549648 -39.49438477 35.35009766 C-37.49438477 33.35009766 -37.49438477 33.35009766 -35.43188477 32.35009766 C-33.32572875 31.50419824 -33.32572875 31.50419824 -32.49438477 29.35009766 C-32.25380679 27.51822683 -32.02673791 25.68457117 -31.80688477 23.85009766 C-30.57778086 16.42203491 -28.07685376 10.35179096 -22.20532227 5.43212891 C-14.78657887 0.3453358 -8.88397509 0.07810552 0 0 Z " fill="#FABB04" transform="translate(99.494384765625,349.64990234375)"/>
<path d="M0 0 C5.94 0 11.88 0 18 0 C18 59.07 18 118.14 18 179 C12.06 179 6.12 179 0 179 C0 119.93 0 60.86 0 0 Z " fill="#C45148" transform="translate(247,316)"/>
<path d="M0 0 C5.61 0 11.22 0 17 0 C17.99 1.98 18.98 3.96 20 6 C23.13117567 8.08745045 24.06946224 8.27653996 27.66796875 8.4140625 C28.56064453 8.45273438 29.45332031 8.49140625 30.37304688 8.53125 C31.76620117 8.57765625 31.76620117 8.57765625 33.1875 8.625 C34.59805664 8.68300781 34.59805664 8.68300781 36.03710938 8.7421875 C38.35775066 8.83642674 40.67884841 8.91930123 43 9 C43 11.97 43 14.94 43 18 C41.74445313 18.02578125 40.48890625 18.0515625 39.1953125 18.078125 C26.07125287 18.33012929 26.07125287 18.33012929 14 23 C12.61748047 23.81984375 12.61748047 23.81984375 11.20703125 24.65625 C3.50105675 29.73116978 -0.91121904 35.82243808 -5 44 C-5.7425 43.835 -6.485 43.67 -7.25 43.5 C-14.5532017 42.52623977 -21.75862925 42.64224298 -29 44 C-29.63615234 42.93072266 -29.63615234 42.93072266 -30.28515625 41.83984375 C-37.62515972 29.85386007 -44.89609089 23.46920348 -58.37890625 18.83984375 C-62.35461707 17.91775332 -65.86200334 17.80286732 -69.9375 17.875 C-70.62134766 17.88402344 -71.30519531 17.89304687 -72.00976562 17.90234375 C-73.67333287 17.92561042 -75.33671631 17.96146833 -77 18 C-77 15.03 -77 12.06 -77 9 C-76.11938904 8.98969254 -75.23877808 8.97938507 -74.33148193 8.96876526 C-66.03275694 8.87078965 -57.73410311 8.76827502 -49.43549728 8.66066074 C-45.16910098 8.60549532 -40.90269774 8.55208557 -36.63623047 8.50268555 C-32.51890407 8.45494782 -28.40165971 8.4026017 -24.28443146 8.34705925 C-22.71358533 8.3266783 -21.14271675 8.30795825 -19.57183075 8.29092598 C-17.37169788 8.26678748 -15.17171889 8.23674615 -12.97167969 8.20532227 C-11.0930423 8.18200584 -11.0930423 8.18200584 -9.17645264 8.15821838 C-6.58917055 8.02934645 -4.45731096 7.76529095 -2 7 C-1.34 4.69 -0.68 2.38 0 0 Z " fill="#F9BA06" transform="translate(273,68)"/>
<path d="M0 0 C12.35455585 2.24628288 12.35455585 2.24628288 18.34375 3.734375 C19.67146394 4.06129619 20.99918221 4.38819979 22.3269043 4.71508789 C23.34679947 4.96816208 23.34679947 4.96816208 24.38729858 5.22634888 C35.45885403 7.97052863 46.54502932 10.61967288 57.6875 13.0625 C66.97336916 15.10554599 76.25655309 17.15822653 85.52383423 19.28414917 C86.8736291 19.59258769 88.22402889 19.89839184 89.57504272 20.20144653 C91.44872987 20.62217513 93.32013188 21.05304183 95.19140625 21.484375 C96.80317749 21.85127441 96.80317749 21.85127441 98.44750977 22.22558594 C101 23 101 23 103 25 C85.23683401 37.13350118 66.53250245 42.32929251 45.05273438 38.66809082 C36.3825371 36.93266601 27.88206435 34.44114222 19.39746094 31.97460938 C14.97760084 30.70671044 10.53015386 29.58454269 6.0625 28.5 C4.061875 28.005 2.06125 27.51 0 27 C0 18.09 0 9.18 0 0 Z " fill="#F59A8C" transform="translate(102,284)"/>
<path d="M0 0 C0.72445312 0.13277344 1.44890625 0.26554688 2.1953125 0.40234375 C4.19170719 0.76701851 6.18855431 1.12922312 8.18579102 1.48925781 C10.17686077 1.85061098 12.16553055 2.22530702 14.15234375 2.609375 C24.62592273 4.04607993 35.22891113 3.49425736 45.3984375 0.65625 C48 0 48 0 52 0 C52.11798604 3.77056169 52.18783864 7.54063765 52.25 11.3125 C52.30027344 12.8912793 52.30027344 12.8912793 52.3515625 14.50195312 C52.45723697 23.08800389 51.01994386 31.30240339 45.8125 38.375 C39.03284881 44.70267445 33.17382599 46.73125431 23.89013672 46.59375 C16.14849347 46.18388754 11.70837655 43.52781812 6.1875 38.375 C0.22205756 30.27291208 -0.5595935 21.03492676 -0.25 11.3125 C-0.23195312 10.21744141 -0.21390625 9.12238281 -0.1953125 7.99414062 C-0.14875049 5.32846538 -0.08338317 2.6647336 0 0 Z " fill="#FBBB04" transform="translate(230,218)"/>
<path d="M0 0 C2.74805839 2.81226971 3.31689453 4.71075958 3.31689453 8.60058594 C2.31919567 11.90546342 1.90106694 12.8369164 -0.68310547 14.91308594 C-2.65673828 15.62084961 -2.65673828 15.62084961 -4.88623047 16.08105469 C-5.70220703 16.25185547 -6.51818359 16.42265625 -7.35888672 16.59863281 C-8.20837891 16.76427734 -9.05787109 16.92992187 -9.93310547 17.10058594 C-11.18414062 17.36645508 -11.18414062 17.36645508 -12.46044922 17.63769531 C-17.45701329 18.65348032 -21.42532474 18.91308594 -26.68310547 18.91308594 C-26.68310547 24.85308594 -26.68310547 30.79308594 -26.68310547 36.91308594 C-24.88873047 36.41808594 -23.09435547 35.92308594 -21.24560547 35.41308594 C-8.85532011 32.35934815 -8.85532011 32.35934815 -2.62060547 35.41308594 C-0.44436324 38.22114043 -0.05481822 40.28300621 0.07861328 43.81542969 C-1.18081487 47.28370106 -3.59321634 49.11805836 -6.68310547 50.91308594 C-10.18319971 52.18712168 -13.7274323 52.97122897 -17.37060547 53.72558594 C-18.76569336 54.04946289 -18.76569336 54.04946289 -20.18896484 54.37988281 C-36.47442261 57.93492037 -36.47442261 57.93492037 -41.96289062 54.4765625 C-44.5553733 50.61322613 -44.27513203 47.06863403 -44.24951172 42.51074219 C-44.2557103 41.59602646 -44.26190887 40.68131073 -44.26829529 39.73887634 C-44.27539155 37.80647851 -44.2722228 35.87401951 -44.25952148 33.94165039 C-44.24566804 30.98892312 -44.27971291 28.03937306 -44.31787109 25.08691406 C-44.31882244 23.207356 -44.31696261 21.32779397 -44.31201172 19.44824219 C-44.32526993 18.5678981 -44.33852814 17.68755402 -44.35218811 16.78053284 C-44.28745803 12.50629311 -44.09209228 10.4817307 -41.53735352 6.9296875 C-38.40828844 4.71892046 -36.12598056 3.88519743 -32.38623047 3.11230469 C-31.17966797 2.85771484 -29.97310547 2.603125 -28.72998047 2.34082031 C-27.47701172 2.09654297 -26.22404297 1.85226562 -24.93310547 1.60058594 C-23.07685547 1.20516602 -23.07685547 1.20516602 -21.18310547 0.80175781 C-4.15755044 -2.68485851 -4.15755044 -2.68485851 0 0 Z " fill="#3A529D" transform="translate(342.68310546875,336.0869140625)"/>
<path d="M0 0 C4.70978559 -0.12562005 9.41855161 -0.21526477 14.12963867 -0.2746582 C15.72486396 -0.29947104 17.31997977 -0.33333364 18.91479492 -0.37719727 C33.47348113 -0.76695737 45.09921366 1.89140345 58 9 C58 9.66 58 10.32 58 11 C57.34217529 11.36649658 56.68435059 11.73299316 56.0065918 12.1105957 C54.02837829 13.21350263 52.05063885 14.31726008 50.07324219 15.42163086 C47.80520751 16.68828276 45.53631824 17.95340558 43.26660156 19.21704102 C37.89721023 22.21599998 32.55290245 25.23936746 27.28515625 28.4140625 C26.42897705 28.92670654 25.57279785 29.43935059 24.69067383 29.9675293 C23.09581801 30.92808015 21.50800811 31.90045487 19.9284668 32.88598633 C14.79093766 35.96827184 14.79093766 35.96827184 11.2734375 36.109375 C8.12239829 34.57175449 6.53463461 32.56213787 4.375 29.8125 C3.61960937 28.87019531 2.86421875 27.92789062 2.0859375 26.95703125 C-3.63777993 18.84307227 -3.63777993 18.84307227 -2.8125 13.6875 C-2.71582031 13.01074219 -2.61914062 12.33398438 -2.51953125 11.63671875 C-1.7520648 7.74168225 -0.87762673 3.87151279 0 0 Z " fill="#C2F036" transform="translate(299,239)"/>
<path d="M0 0 C5.91260747 3.15710927 9.61167466 8.12641151 12.9375 13.8125 C15.1246194 21.40309087 14.86749706 28.33571501 11.2734375 35.421875 C6.11853133 43.83417587 6.11853133 43.83417587 1.8125 45.1875 C1.214375 45.290625 0.61625 45.39375 0 45.5 C-2.19161303 43.4687489 -3.64023404 42.10664569 -5 39.5 C-5.00418684 36.83717027 -4.64510591 34.47132829 -4.1015625 31.8671875 C-3.79434477 29.42126496 -3.79434477 29.42126496 -5.21484375 27.24609375 C-7.24398303 25.26135577 -8.1517449 24.91741837 -10.9375 24.6875 C-11.60652344 24.61917969 -12.27554687 24.55085938 -12.96484375 24.48046875 C-15.01773272 24.39008923 -15.01773272 24.39008923 -16.90917969 25.17553711 C-19 25.5 -19 25.5 -20.75512695 24.40771484 C-22.62408099 22.57798805 -24.48430751 20.74562279 -26.3125 18.875 C-26.97056641 18.24464844 -27.62863281 17.61429688 -28.30664062 16.96484375 C-32.95519057 12.29200671 -32.95519057 12.29200671 -33.15625 8.73828125 C-31.81228145 6.1366124 -30.58886359 4.97429707 -28.1875 3.3125 C-27.15689453 2.57966797 -27.15689453 2.57966797 -26.10546875 1.83203125 C-25.41066406 1.39246094 -24.71585937 0.95289062 -24 0.5 C-23.401875 0.11972656 -22.80375 -0.26054688 -22.1875 -0.65234375 C-15.8415393 -3.11140352 -6.2869768 -2.45398404 0 0 Z " fill="#A8DFF7" transform="translate(319,104.5)"/>
<path d="M0 0 C5.71179075 3.35484548 8.89779551 7.92059103 11.8125 13.75 C13.5109279 22.5818251 13.27869114 31.08641364 8.30078125 38.75 C5.76605175 42.07633272 3.45094115 43.85330253 -0.5625 45 C-1.59781726 44.09972412 -2.61544165 43.17906965 -3.625 42.25 C-4.19347656 41.73953125 -4.76195312 41.2290625 -5.34765625 40.703125 C-6.5625 39 -6.5625 39 -6.2578125 37.01953125 C-6.02835938 36.35308594 -5.79890625 35.68664062 -5.5625 35 C-5.21622147 29.66341252 -5.21622147 29.66341252 -7.5625 25 C-12.82224786 23.86729236 -12.82224786 23.86729236 -17.9375 24.8828125 C-20.5625 25 -20.5625 25 -22.05151367 23.88085938 C-23.70302602 22.18912953 -25.23392528 20.43904243 -26.75 18.625 C-30.19694658 14.25319317 -30.19694658 14.25319317 -34.5625 11 C-34.00704547 7.29152418 -32.63038773 5.77973877 -29.8125 3.375 C-29.13703125 2.78460938 -28.4615625 2.19421875 -27.765625 1.5859375 C-20.1065244 -3.92752854 -8.44109193 -3.81003694 0 0 Z " fill="#A8DFF8" transform="translate(217.5625,105)"/>
<path d="M0 0 C-0.47050781 0.56847656 -0.94101562 1.13695312 -1.42578125 1.72265625 C-8.46640339 10.45419385 -10.90871334 17.61238424 -11.5625 28.8125 C-11.62727539 29.85180664 -11.62727539 29.85180664 -11.69335938 30.91210938 C-11.79861453 32.60788686 -11.89972863 34.30392052 -12 36 C-14.26999825 36.50377768 -16.54103003 37.00290019 -18.8125 37.5 C-20.07707031 37.7784375 -21.34164062 38.056875 -22.64453125 38.34375 C-26 39 -26 39 -29 39 C-29.70125 38.175 -30.4025 37.35 -31.125 36.5 C-34.58162199 33.49424175 -35.97769223 33.44628605 -40.375 33.69140625 C-45.29042286 34.26926102 -50.1320682 35.10474818 -55 36 C-55 30.06 -55 24.12 -55 18 C-53.46988281 17.73445313 -51.93976563 17.46890625 -50.36328125 17.1953125 C-48.34630432 16.83882355 -46.32937996 16.48203713 -44.3125 16.125 C-43.30509766 15.95097656 -42.29769531 15.77695312 -41.25976562 15.59765625 C-40.28330078 15.42363281 -39.30683594 15.24960937 -38.30078125 15.0703125 C-37.40528564 14.91320801 -36.50979004 14.75610352 -35.5871582 14.59423828 C-31.06697948 13.55600907 -28.63269373 12.94904059 -26 9 C-25.61500109 7.34450469 -25.27206865 5.6777567 -25 4 C-21.39883744 3.13281402 -17.79369152 2.28350759 -14.1875 1.4375 C-13.16333984 1.19064453 -12.13917969 0.94378906 -11.08398438 0.68945312 C-10.10107422 0.46064453 -9.11816406 0.23183594 -8.10546875 -0.00390625 C-6.74651489 -0.32597046 -6.74651489 -0.32597046 -5.36010742 -0.65454102 C-3 -1 -3 -1 0 0 Z " fill="#56B5E9" transform="translate(371,337)"/>
<path d="M0 0 C1.16090149 0.00007553 2.32180298 0.00015106 3.5178833 0.00022888 C5.38993439 0.00797081 5.38993439 0.00797081 7.29980469 0.01586914 C8.5815155 0.01728409 9.86322632 0.01869904 11.18377686 0.02015686 C14.58351609 0.02396639 17.98321229 0.03378325 21.38293457 0.04486084 C24.85521869 0.05510865 28.32750979 0.05966169 31.79980469 0.06469727 C38.60711398 0.07540698 45.41439476 0.09246455 52.22167969 0.11352539 C49.58545879 1.87100599 47.65833999 2.71832197 44.72167969 3.73852539 C32.88167258 8.45724355 25.85805802 15.84076873 20.22167969 27.11352539 C19.47917969 26.94852539 18.73667969 26.78352539 17.97167969 26.61352539 C10.66847798 25.63976516 3.46305044 25.75576837 -3.77832031 27.11352539 C-4.20242187 26.40067383 -4.62652344 25.68782227 -5.06347656 24.95336914 C-10.93523716 15.10915935 -10.93523716 15.10915935 -19.77832031 8.11352539 C-19.77832031 7.45352539 -19.77832031 6.79352539 -19.77832031 6.11352539 C-18.19757467 5.29600236 -16.61360808 4.48470542 -15.02832031 3.67602539 C-14.14660156 3.22356445 -13.26488281 2.77110352 -12.35644531 2.30493164 C-8.13330194 0.3533275 -4.6462328 -0.01010051 0 0 Z " fill="#F7DF0A" transform="translate(247.7783203125,84.886474609375)"/>
<path d="M0 0 C2.93224851 2.63150507 3.87978797 4.15851579 4.4375 8.0625 C3.93893121 11.41003331 3.29885285 12.55943704 1 15 C-1.52099609 16.04907227 -1.52099609 16.04907227 -4.5234375 16.81640625 C-5.62816406 17.10580078 -6.73289062 17.39519531 -7.87109375 17.69335938 C-9.02738281 17.98017578 -10.18367188 18.26699219 -11.375 18.5625 C-12.49261719 18.85318359 -13.61023438 19.14386719 -14.76171875 19.44335938 C-18.16858738 20.3216006 -21.58169309 21.16745064 -25 22 C-26.16748779 22.28536621 -27.33497559 22.57073242 -28.5378418 22.86474609 C-29.67133057 23.13496582 -30.80481934 23.40518555 -31.97265625 23.68359375 C-32.98593994 23.9252124 -33.99922363 24.16683105 -35.04321289 24.41577148 C-39.71150106 25.33817373 -44.29131566 25.85390649 -49 25 C-51.75 22.9375 -51.75 22.9375 -53 20 C-53.07154364 15.99355624 -52.53776308 13.78953398 -50.28125 10.4765625 C-45.86748394 6.29318315 -39.17839291 5.94376737 -33.4375 4.875 C-30.99830909 4.39520168 -28.55950218 3.91344681 -26.12109375 3.4296875 C-24.93241699 3.19862305 -23.74374023 2.96755859 -22.51904297 2.72949219 C-18.13940403 1.82159978 -13.82603017 0.71866379 -9.50805664 -0.44482422 C-5.98865174 -1.22386897 -3.41872874 -1.13957625 0 0 Z " fill="#3D529C" transform="translate(359,410)"/>
<path d="M0 0 C4.34035472 2.24315678 6.69427015 4.93053976 9.6875 8.75 C13.00367829 12.77327827 13.00367829 12.77327827 17.6953125 14.390625 C20.30371155 14.03782084 20.30371155 14.03782084 22.796875 13.41796875 C25 13 25 13 28.0625 14.3125 C30 16 30 16 31 18 C31.23636364 24.38181818 31.23636364 24.38181818 30.1875 27.125 C30.0946875 28.053125 30.0946875 28.053125 30 29 C32.39585286 31.64587234 32.39585286 31.64587234 35 34 C35 34.66 35 35.32 35 36 C29.35038741 39.6402143 21.4366567 38.49956142 15 38 C8.27243935 36.39189927 3.84528483 31.5441276 0 26 C-3.41979517 20.06992964 -3.77707884 13.71475819 -3 7 C-2.22584115 4.42836888 -1.27141832 2.38390936 0 0 Z " fill="#56B5E9" transform="translate(182,115)"/>
<path d="M0 0 C2.54814041 2.50296062 5.01368198 5.01572069 7.359375 7.7109375 C11.59758592 12.87630943 11.59758592 12.87630943 17.47265625 15.31640625 C19.80402987 14.97229108 19.80402987 14.97229108 22.0234375 14.38671875 C24 14 24 14 26.9375 15.25 C29 17 29 17 31 20 C30.80078125 22.234375 30.80078125 22.234375 30.3125 24.75 C29.77718021 28.80653443 30.0081253 30.7998782 32.4375 34.125 C33.283125 35.07375 34.12875 36.0225 35 37 C27.38439352 39.89673375 18.81309058 40.6546965 11.01171875 37.97265625 C4.5744174 34.44630452 -0.29338532 29.13031407 -2.63671875 22.0859375 C-4.00420543 14.23391721 -3.32229178 7.19829886 0 0 Z " fill="#57B5EA" transform="translate(285,114)"/>
<path d="M0 0 C1.34952759 0.17607788 1.34952759 0.17607788 2.72631836 0.35571289 C8.56525389 1.21041742 13.55480805 2.34159463 18 6.5 C19.52628182 9.64234492 19.09236719 11.391925 18.0625 14.6875 C16.17128207 16.94476011 14.68957151 18.37396424 12.0625 19.6875 C3.69983842 19.63563853 -4.71491555 18.44107694 -13 17.375 C-13.90403564 17.26961914 -14.80807129 17.16423828 -15.73950195 17.05566406 C-20.79959139 16.36412324 -24.40841521 15.69913312 -27.9375 11.6875 C-28.56640625 9.46875 -28.56640625 9.46875 -28.5 7.1875 C-28.50128906 6.4346875 -28.50257813 5.681875 -28.50390625 4.90625 C-25.66253897 -6.22407148 -8.31688647 -1.11473841 0 0 Z " fill="#3D519B" transform="translate(186.9375,347.3125)"/>
<path d="M0 0 C24.85942286 -1.05999901 24.85942286 -1.05999901 32 5 C36.40176487 9.05228637 39.82391293 12.98888831 41 19 C41.02211167 20.99987776 41.02492881 23.00015537 41 25 C29.46737854 25.41025136 20.23022611 25.30331225 10.921875 17.80078125 C5.24631193 12.48282479 1.89874937 7.58578024 0 0 Z " fill="#F8E009" transform="translate(95,350)"/>
<path d="M0 0 C3.52067351 -0.08782542 7.04106144 -0.14066643 10.5625 -0.1875 C11.55314453 -0.21263672 12.54378906 -0.23777344 13.56445312 -0.26367188 C22.24814849 -0.35022033 27.93258805 1.39133071 34.421875 7.33984375 C38.4273816 11.55355738 40.22237767 15.06315168 40.25 20.9375 C40.18664949 22.29274851 40.11038614 23.64776973 40 25 C28.8591901 25.47147628 19.69819595 24.92085084 10.81640625 17.671875 C6.13949198 13.36710229 2.43116246 8.94284157 0 3 C0 2.01 0 1.02 0 0 Z " fill="#F8DF09" transform="translate(403,342)"/>
<path d="M0 0 C0 5.94 0 11.88 0 18 C-8.03754628 20.96169144 -16.26989382 22.76024551 -24.62036133 24.58935547 C-27.06152361 25.12478585 -29.50054041 25.66926846 -31.93945312 26.21484375 C-33.51290152 26.5630396 -35.08646551 26.91071361 -36.66015625 27.2578125 C-37.37808853 27.41823029 -38.09602081 27.57864807 -38.83570862 27.743927 C-43.54261488 28.76832309 -48.21248332 29.46174456 -53 30 C-49.44288814 27.00172177 -45.85265994 24.67632253 -41.765625 22.4609375 C-40.87859642 21.9766478 -40.87859642 21.9766478 -39.97364807 21.48257446 C-38.71567661 20.79610131 -37.45657945 20.11168755 -36.19644165 19.42919922 C-32.92629171 17.65807522 -29.66385472 15.872909 -26.40234375 14.0859375 C-25.76137253 13.73497009 -25.12040131 13.38400269 -24.46000671 13.0223999 C-18.47438713 9.73342977 -12.58261586 6.29543495 -6.74902344 2.74365234 C-2.20062029 0 -2.20062029 0 0 0 Z " fill="#A6DCF6" transform="translate(384,254)"/>
<path d="M0 0 C3.80515674 1.52206269 7.10468548 3.0744605 10.65625 5.0546875 C11.75203369 5.66417236 12.84781738 6.27365723 13.97680664 6.90161133 C15.15132058 7.55920014 16.32571598 8.21700071 17.5 8.875 C18.70494349 9.54786556 19.90994074 10.22063484 21.11499023 10.89331055 C24.74671467 12.92285979 28.37398149 14.96027783 32 17 C33.0842627 17.60956543 34.16852539 18.21913086 35.28564453 18.84716797 C38.214247 20.49707834 41.13933723 22.1529746 44.0625 23.8125 C44.94164062 24.30927246 45.82078125 24.80604492 46.7265625 25.31787109 C47.52964844 25.77629395 48.33273438 26.2347168 49.16015625 26.70703125 C50.20635132 27.30221558 50.20635132 27.30221558 51.27368164 27.90942383 C53 29 53 29 55 31 C45.91853459 29.26660826 36.91982597 27.19261715 27.91259766 25.11376953 C25.24323429 24.4984404 22.5728231 23.88780896 19.90234375 23.27734375 C18.19003831 22.88309844 16.47779645 22.48857684 14.765625 22.09375 C13.97488586 21.91348267 13.18414673 21.73321533 12.3694458 21.54748535 C11.24732697 21.28711487 11.24732697 21.28711487 10.10253906 21.02148438 C9.45319397 20.87207397 8.80384888 20.72266357 8.13482666 20.56872559 C5.3870761 19.83671484 2.69766113 18.89922038 0 18 C0 12.06 0 6.12 0 0 Z " fill="#A6DCF6" transform="translate(128,254)"/>
<path d="M0 0 C1.20759237 2.36828796 2.34263703 4.75194937 3.4453125 7.171875 C9.36902423 19.79075858 15.87165675 26.49808021 29 32 C33.98534763 33.74487167 38.77464742 34.44996289 44 35 C42.25 40.75 42.25 40.75 40 43 C29.62204166 44.79582157 19.48457956 40.74922356 11.0625 34.875 C5.37256052 30.10718699 1.52475472 23.25810458 0 16 C-0.06926968 13.24029592 -0.0941736 10.50803958 -0.0625 7.75 C-0.05798828 7.00492188 -0.05347656 6.25984375 -0.04882812 5.4921875 C-0.03709246 3.6614236 -0.0191585 1.83070127 0 0 Z " fill="#F8BB06" transform="translate(265,136)"/>
<path d="M0 0 C11 2 11 2 14.15234375 2.609375 C24.62592273 4.04607993 35.22891113 3.49425736 45.3984375 0.65625 C48 0 48 0 52 0 C52 7.92 52 15.84 52 24 C51.67 24 51.34 24 51 24 C50.67 18.72 50.34 13.44 50 8 C48.4325 8.474375 46.865 8.94875 45.25 9.4375 C30.21064025 13.98888519 15.84301359 12.74976435 1 8 C1 13.28 1 18.56 1 24 C0.67 24 0.34 24 0 24 C0 16.08 0 8.16 0 0 Z " fill="#DD9532" transform="translate(230,218)"/>
<path d="M0 0 C0 0.66 0 1.32 0 2 C-0.66 2 -1.32 2 -2 2 C4.44028105 16.37155964 13.29709814 26.6060218 26 36 C19.96203341 35.52261066 15.47793729 34.229195 10.125 31.4375 C9.08073853 30.89851074 9.08073853 30.89851074 8.01538086 30.34863281 C-2.2614903 24.89019956 -14.06042666 16.29582354 -17.74609375 4.640625 C-17.82988281 4.09921875 -17.91367188 3.5578125 -18 3 C-16.87851563 2.80083984 -16.87851563 2.80083984 -15.734375 2.59765625 C-14.25710937 2.33275391 -14.25710937 2.33275391 -12.75 2.0625 C-11.77546875 1.88847656 -10.8009375 1.71445313 -9.796875 1.53515625 C-8.13063818 1.21633719 -6.46968439 0.86169827 -4.828125 0.43359375 C-3 0 -3 0 0 0 Z " fill="#F7BA07" transform="translate(221,168)"/>
<path d="M0 0 C1.8046875 0.6015625 1.8046875 0.6015625 3.8046875 2.2265625 C5.23816962 5.63108253 5.31830419 7.94204357 4.8046875 11.6015625 C2.21838946 15.28507789 0.73493624 16.41883507 -3.6953125 17.2890625 C-7.1953125 16.6015625 -7.1953125 16.6015625 -10.1953125 14.0390625 C-12.1953125 10.6015625 -12.1953125 10.6015625 -12.3203125 6.9765625 C-10.15392327 0.4773948 -6.44585295 -1.24052264 0 0 Z " fill="#3B559F" transform="translate(208.1953125,128.3984375)"/>
<path d="M0 0 C3.01544785 0.61679615 4.0364007 1.20701522 6.5 3.25 C8.42384705 7.0976941 8.19966325 9.04153067 6.9375 13.125 C4.34946019 16.00881579 2.74220451 16.9741179 -1.0625 17.6875 C-5.19857554 16.91198584 -6.61249553 15.51177089 -9.0625 12.125 C-9.85403944 7.69237912 -9.56666232 5.88124348 -7.0625 2.125 C-4.03447232 0.10631488 -3.41378355 -0.21695073 0 0 Z " fill="#3B559F" transform="translate(308.0625,127.875)"/>
</svg>
