<?xml version="1.0" encoding="UTF-8"?>
<svg version="1.1" xmlns="http://www.w3.org/2000/svg" width="512" height="512">
<path d="M0 0 C1.61731401 -0.00870676 3.23461978 -0.01907722 4.85191345 -0.03097534 C9.22404144 -0.05764645 13.59582249 -0.05892487 17.96801591 -0.05384874 C21.62825289 -0.05170152 25.2884208 -0.06149608 28.94864291 -0.07105958 C37.59016399 -0.09321303 46.23151117 -0.09414608 54.87304688 -0.08203125 C63.76359382 -0.06995818 72.65350721 -0.09456475 81.54394609 -0.13717139 C89.198645 -0.17249586 96.8531431 -0.18439152 104.50792044 -0.1778959 C109.07019684 -0.17428394 113.63202142 -0.1794031 118.1942234 -0.20732498 C122.48819011 -0.23262405 126.78117553 -0.22846272 131.07512856 -0.2025032 C132.64234257 -0.19780279 134.20962718 -0.20312869 135.7767601 -0.21974945 C146.43673605 -0.32457047 155.60675999 1.01881253 163.92133427 8.29051685 C171.10316934 15.76843184 172.51815935 24.36697317 172.32104492 34.36572266 C172.31538513 35.46279037 172.30972534 36.55985809 172.30389404 37.69017029 C172.28165766 41.16451246 172.23148374 44.63779048 172.18041992 48.11181641 C172.16033852 50.47963996 172.14209064 52.84747983 172.12573242 55.21533203 C172.08183476 60.99368462 172.01505097 66.77142445 171.93041992 72.54931641 C173.10846191 72.50218506 173.10846191 72.50218506 174.31030273 72.45410156 C177.93337171 72.32793827 181.55597683 72.25088915 185.18041992 72.17431641 C186.4153418 72.12404297 187.65026367 72.07376953 188.92260742 72.02197266 C198.5716065 71.86962004 206.35089359 73.83955642 213.85522461 80.17407227 C221.32993366 88.18285461 222.51874849 96.9638668 222.45181274 107.54743958 C222.45946384 108.83706515 222.46711493 110.12669073 222.47499788 111.45539588 C222.49548438 115.01491562 222.4912135 118.57403083 222.48263669 122.13358319 C222.47768866 125.98035995 222.4957473 129.82704099 222.51071167 133.67378235 C222.53617304 141.20246083 222.53979712 148.73099654 222.53511114 156.25971083 C222.53154062 162.38164451 222.53505301 168.50353496 222.54356003 174.62546349 C222.54475041 175.49779355 222.54594078 176.37012362 222.54716723 177.26888793 C222.54959082 179.04121736 222.55201909 180.81354678 222.55445199 182.58587619 C222.57619077 199.19648846 222.57188396 215.80701947 222.55968229 232.4176363 C222.54934662 247.5989305 222.57184975 262.77996794 222.60987873 277.96121136 C222.64866474 293.56478975 222.66514233 309.16824676 222.65763223 324.77187365 C222.65381234 333.52591222 222.65874245 342.27973231 222.68706131 351.03373146 C222.71092846 358.4867945 222.71365515 365.93950461 222.68948098 373.39257268 C222.67773019 377.19172619 222.67542766 380.99023482 222.69948578 384.78934479 C222.72531842 388.91681776 222.70421189 393.04276638 222.67886353 397.17024231 C222.6936121 398.3586888 222.70836066 399.54713528 222.72355616 400.7715953 C222.60726738 409.8007665 220.21015918 417.62272243 214.19047612 424.55224138 C212.53318838 426.12998092 210.870623 427.33900282 208.93041992 428.54931641 C208.3579934 428.91336452 207.78556688 429.27741264 207.19579411 429.65249252 C199.5491875 433.69255373 191.42481964 433.08148614 183.02783203 433.00341797 C181.32209296 433.00228828 179.61635195 433.00292572 177.91061401 433.00518799 C173.30161742 433.00633133 168.69304085 432.98288381 164.08414149 432.95489216 C159.25953115 432.92981494 154.43491021 432.92753153 149.61024475 432.92279053 C140.48375727 432.91037929 131.35746243 432.8775828 122.23105961 432.83739257 C111.83688001 432.79261714 101.44269101 432.77067332 91.04843891 432.75061083 C69.67565857 432.70884849 48.3030514 432.63853254 26.93041992 432.54931641 C27.03064453 433.22725754 27.13086914 433.90519867 27.23413086 434.60368347 C28.27652908 441.65955675 29.31391338 448.71615423 30.34838867 455.77319336 C30.73472161 458.40691264 31.12313362 461.04030146 31.51245117 463.67358398 C32.07180519 467.45849863 32.6265597 471.24406318 33.18041992 475.02978516 C33.35541016 476.20703659 33.53040039 477.38428802 33.71069336 478.59721375 C33.87085938 479.69797745 34.03102539 480.79874115 34.19604492 481.93286133 C34.33816406 482.89882736 34.4802832 483.8647934 34.62670898 484.86003113 C34.91923502 487.45027686 34.98603671 489.94533033 34.93041992 492.54931641 C36.02741211 492.49130859 37.1244043 492.43330078 38.25463867 492.37353516 C39.70902306 492.32661953 41.16345366 492.2811213 42.61791992 492.23681641 C43.33915039 492.19492187 44.06038086 492.15302734 44.8034668 492.10986328 C48.90752639 492.01616329 50.49702859 492.22839097 53.91088867 494.75634766 C56.03950107 497.70017331 56.61126838 498.97501505 56.55541992 502.54931641 C56.56831055 503.37431641 56.58120117 504.19931641 56.59448242 505.04931641 C55.62418466 508.7022021 53.82628155 510.16709923 50.93041992 512.54931641 C47.67419434 513.17852211 47.67419434 513.17852211 43.90893555 513.18423462 C42.86651325 513.19593455 42.86651325 513.19593455 41.80303192 513.20787084 C39.48036782 513.2277739 37.15934541 513.21203496 34.83666992 513.19628906 C33.16917974 513.20306601 31.50169704 513.21196958 29.83422852 513.22283936 C25.30935307 513.24563032 20.78504774 513.23679733 16.26016235 513.22094393 C11.52458155 513.20828385 6.78904952 513.22002534 2.0534668 513.22787476 C-5.8990963 513.23697101 -13.85142723 513.22498406 -21.80395508 513.20117188 C-30.99783179 513.17396061 -40.19115412 513.18277479 -49.3850174 513.2103039 C-57.27902217 513.23299468 -65.17286005 513.23619522 -73.0668869 513.22311056 C-77.78150011 513.21531586 -82.49585275 513.21427493 -87.21044922 513.230793 C-91.64298449 513.24523809 -96.07480511 513.23521571 -100.50726318 513.20632172 C-102.13383803 513.19971105 -103.76047303 513.20160832 -105.38702393 513.21263504 C-107.60819257 513.22630439 -109.82707287 513.20916291 -112.0480957 513.18423462 C-113.2906311 513.18234949 -114.5331665 513.18046436 -115.81335449 513.17852211 C-119.96663137 512.37597774 -121.45492705 510.80301065 -124.06958008 507.54931641 C-124.73364258 505.04931641 -124.73364258 505.04931641 -124.69458008 502.54931641 C-124.7074707 501.72431641 -124.72036133 500.89931641 -124.73364258 500.04931641 C-123.73850952 496.30293314 -122.16727105 494.84315048 -119.06958008 492.54931641 C-116.26318744 491.97182508 -113.6067097 492.07128832 -110.75708008 492.23681641 C-110.01651367 492.259375 -109.27594727 492.28193359 -108.51293945 492.30517578 C-106.69760651 492.36373491 -104.88332327 492.45340754 -103.06958008 492.54931641 C-103.01629044 491.81847839 -102.96300079 491.08764038 -102.90809631 490.33465576 C-102.3501221 483.13138234 -101.51045441 476.02115672 -100.44067383 468.87744141 C-100.28671646 467.82901062 -100.13275909 466.78057983 -99.97413635 465.70037842 C-99.48860856 462.39949833 -98.99794082 459.0994072 -98.50708008 455.79931641 C-98.17405532 453.54155439 -97.84137003 451.28374228 -97.5090332 449.02587891 C-96.69979941 443.53310703 -95.88636094 438.04097082 -95.06958008 432.54931641 C-96.39038134 432.55761254 -96.39038134 432.55761254 -97.73786545 432.56607628 C-119.19750286 432.69878242 -140.65706921 432.79796788 -162.1170311 432.86018944 C-172.49508178 432.89108184 -182.87285796 432.9331739 -193.25073242 433.00195312 C-202.29976252 433.06189669 -211.34859375 433.10049908 -220.3978169 433.11384737 C-225.1861034 433.12164589 -229.97382115 433.1398771 -234.76192474 433.18369675 C-239.27643928 433.22467459 -243.79015532 433.2369351 -248.30483818 433.22796249 C-249.95432576 433.22960196 -251.60384235 433.24138667 -253.25316811 433.26454926 C-264.1204117 433.40957232 -273.33615096 432.25780227 -281.98464584 424.92575645 C-289.47952293 416.93905404 -290.65784168 408.12417808 -290.5909729 397.55119324 C-290.59862399 396.26156766 -290.60627509 394.97194208 -290.61415803 393.64323694 C-290.63464454 390.08371719 -290.63037366 386.52460198 -290.62179685 382.96504962 C-290.61684881 379.11827287 -290.63490746 375.27159182 -290.64987183 371.42485046 C-290.6753332 363.89617198 -290.67895728 356.36763627 -290.6742713 348.83892199 C-290.67070077 342.7169883 -290.67421317 336.59509785 -290.68272018 330.47316933 C-290.68391056 329.60083926 -290.68510094 328.72850919 -290.68632739 327.82974488 C-290.68875098 326.05741545 -290.69117924 324.28508604 -290.69361214 322.51275662 C-290.71535093 305.90214435 -290.71104412 289.29161335 -290.69884245 272.68099651 C-290.68850678 257.49970231 -290.7110099 242.31866487 -290.74903889 227.13742145 C-290.7878249 211.53384306 -290.80430249 195.93038605 -290.79679239 180.32675916 C-290.7929725 171.57272059 -290.7979026 162.8189005 -290.82622147 154.06490135 C-290.85008861 146.61183831 -290.85281531 139.1591282 -290.82864113 131.70606013 C-290.81689035 127.90690662 -290.81458782 124.10839799 -290.83864594 120.30928802 C-290.86447858 116.18181505 -290.84337205 112.05586643 -290.81802368 107.9283905 C-290.84014654 106.14572077 -290.84014654 106.14572077 -290.86271632 104.32703751 C-290.74655293 95.30760201 -288.33526632 87.62137401 -282.44628298 80.61915654 C-275.49149063 74.15580502 -267.54526258 71.94370188 -258.25559998 72.06829834 C-257.30869311 72.06488064 -256.36178624 72.06146294 -255.38618523 72.05794168 C-252.23533208 72.0513896 -249.08534406 72.07329486 -245.93457031 72.09521484 C-243.66726196 72.0963439 -241.39995215 72.09570833 -239.13264465 72.09344482 C-232.99274872 72.09229902 -226.85316652 72.11578709 -220.71334338 72.14374065 C-214.29117605 72.16877637 -207.86900121 72.17109803 -201.4467926 72.17584229 C-190.67247067 72.1868549 -179.89828561 72.21182538 -169.12402344 72.24755859 C-158.02995372 72.28431404 -146.93591524 72.31260846 -135.84179688 72.32958984 C-135.1571524 72.33064074 -134.47250793 72.33169163 -133.76711666 72.33277437 C-130.33221618 72.33799479 -126.89731547 72.34304955 -123.46241462 72.34802198 C-94.99805748 72.38944159 -66.53382495 72.46015157 -38.06958008 72.54931641 C-38.08956558 71.6496817 -38.08956558 71.6496817 -38.10995483 70.73187256 C-38.24365844 64.43686577 -38.33358579 58.14226819 -38.39916992 51.84619141 C-38.42917043 49.50292553 -38.46998499 47.1597703 -38.5222168 44.81689453 C-39.08991622 18.68045855 -39.08991622 18.68045855 -30.44482422 8.66748047 C-28.74286146 7.03568397 -27.06901782 5.79401247 -25.06958008 4.54931641 C-24.48748937 4.18637293 -23.90539865 3.82342945 -23.30566883 3.44948769 C-15.87976707 -0.41856791 -8.15104241 -0.02907929 0 0 Z M-15.06958008 23.54931641 C-18.5245095 29.57163518 -18.49377598 35.07069151 -18.45053101 41.89794922 C-18.45521098 43.03421879 -18.45989095 44.17048836 -18.46471274 45.34119034 C-18.47666971 49.14505975 -18.46720239 52.94856937 -18.45776367 56.75244141 C-18.46017887 59.48100528 -18.46706231 62.20955391 -18.47369385 64.93811035 C-18.48702256 71.57770749 -18.48415731 78.21720279 -18.47545592 84.85680389 C-18.46867639 90.2537062 -18.46776383 95.65058001 -18.47102737 101.04748535 C-18.47148707 101.81606629 -18.47194677 102.58464722 -18.4724204 103.37651849 C-18.47337959 104.93795364 -18.47435223 106.49938878 -18.47533818 108.06082392 C-18.48388954 122.69693513 -18.47406192 137.33298993 -18.45793708 151.96909189 C-18.44453412 164.52320539 -18.44686228 177.07723566 -18.46069336 189.63134766 C-18.47675365 204.21565496 -18.48306559 218.79991284 -18.47385657 233.38422775 C-18.47290094 234.93986765 -18.47195782 236.49550755 -18.47102737 238.05114746 C-18.47056455 238.81652022 -18.47010172 239.58189297 -18.46962487 240.37045884 C-18.46703633 245.75988341 -18.47140305 251.14927659 -18.47846603 256.53869629 C-18.48688622 263.10803783 -18.48459003 269.67727185 -18.4686238 276.2466011 C-18.46074791 279.59740975 -18.4592567 282.94789107 -18.46757126 286.29872131 C-18.47575802 289.93288795 -18.46549897 293.56654923 -18.45053101 297.20068359 C-18.45722317 298.25720249 -18.46391534 299.31372139 -18.47081029 300.40225601 C-18.42436162 306.20892943 -17.97170342 310.4631835 -15.06958008 315.54931641 C-11.50766532 317.92392624 -9.97217048 317.80646046 -5.74417114 317.82347107 C-5.09993442 317.82870775 -4.45569771 317.83394443 -3.79193866 317.83933979 C-1.62937773 317.85436284 0.53294707 317.85504543 2.69555664 317.85571289 C4.24452108 317.86333283 5.79348174 317.87176005 7.34243774 317.88093567 C11.55321259 317.90290367 15.76391482 317.91168262 19.97474051 317.91676211 C22.6048745 317.92040291 25.23498939 317.92664151 27.86511612 317.9337635 C37.03907357 317.95826581 46.2129744 317.97131162 55.38696289 317.97485352 C63.94115476 317.97848961 72.49498801 318.00838815 81.04907024 318.0502581 C88.39098655 318.08493622 95.73278386 318.10040152 103.07478154 318.10109955 C107.46084081 318.10189321 111.84653489 318.11067209 116.23250961 318.13909721 C120.35799233 318.16523575 124.482806 318.16750712 128.60833359 318.15144157 C130.12205461 318.1496237 131.63581373 318.15634847 133.14945221 318.17226028 C135.21744332 318.19267344 137.28308291 318.18220222 139.3510437 318.16404724 C141.08600507 318.16706423 141.08600507 318.16706423 142.85601616 318.17014217 C146.91117477 317.35126894 148.38956296 315.75192435 150.93041992 312.54931641 C151.92457469 309.58295242 152.05722123 306.84974049 152.06184769 303.73504925 C152.06568883 302.76301798 152.06952998 301.7909867 152.07348752 300.78949994 C152.07262104 299.72424252 152.07175456 298.65898509 152.07086182 297.56144714 C152.07383294 296.42774085 152.07680406 295.29403455 152.07986522 294.12597352 C152.08856275 290.31289747 152.09006136 286.49985277 152.09155273 282.68676758 C152.09564197 279.95865188 152.10118401 277.23053949 152.1065979 274.50242615 C152.12017632 267.08094372 152.12620506 259.65946671 152.13060856 252.23797393 C152.13337159 247.60390785 152.13760904 242.96984386 152.14211273 238.33577919 C152.15430434 225.50498047 152.16460414 212.67418341 152.16798782 199.84337902 C152.16820739 199.02228451 152.16842696 198.20119 152.16865318 197.35521384 C152.16887145 196.53215891 152.16908973 195.70910399 152.16931462 194.86110801 C152.16975809 193.19329401 152.17020465 191.52548001 152.1706543 189.85766602 C152.17087573 189.03037329 152.17109716 188.20308056 152.1713253 187.35071836 C152.17527375 173.94410063 152.19272968 160.53753725 152.21601382 147.13094052 C152.23972719 133.36609686 152.25218965 119.60128048 152.25335574 105.83641607 C152.25427247 98.1081247 152.2600242 90.37990416 152.27817535 82.65163231 C152.29357609 76.0712526 152.29869696 69.4909656 152.29043725 62.9105713 C152.28653068 59.55369752 152.2890926 56.19716225 152.3014946 52.84028625 C152.31415809 49.19940827 152.30836725 45.55901094 152.2979126 41.9181366 C152.305969 40.85957134 152.31402541 39.80100608 152.32232594 38.71036309 C152.28325219 32.90042412 151.84934335 28.63255213 148.93041992 23.54931641 C143.5636928 20.22455938 138.68793781 20.14206565 132.49682617 20.25634766 C131.61888901 20.2605925 130.74095184 20.26483734 129.83641052 20.26921082 C127.05492412 20.28589351 124.27418428 20.32352556 121.49291992 20.36181641 C119.59774816 20.37687673 117.70256494 20.39056277 115.80737305 20.40283203 C111.18143795 20.43576281 106.55605516 20.48747212 101.93041992 20.54931641 C101.82084961 21.11521484 101.7112793 21.68111328 101.59838867 22.26416016 C101.36055664 23.364375 101.36055664 23.364375 101.11791992 24.48681641 C100.89168945 25.58316406 100.89168945 25.58316406 100.66088867 26.70166016 C100.29930664 27.61625 100.29930664 27.61625 99.93041992 28.54931641 C96.74475852 29.61120354 94.47662947 29.67617534 91.12963867 29.67871094 C89.93830322 29.6818631 88.74696777 29.68501526 87.51953125 29.68826294 C86.23199951 29.68623871 84.94446777 29.68421448 83.61791992 29.68212891 C82.28417951 29.68280259 80.95043921 29.68377316 79.61669922 29.68502808 C76.82249786 29.68650201 74.02832849 29.68436026 71.23413086 29.6796875 C67.65288243 29.67399038 64.07170894 29.67727101 60.49046326 29.68325996 C57.73668859 29.68687378 54.98293169 29.68572321 52.22915649 29.68313217 C50.26654003 29.68214084 48.30392288 29.68517736 46.34130859 29.68826294 C45.14997314 29.68511078 43.9586377 29.68195862 42.73120117 29.67871094 C41.15592651 29.67751755 41.15592651 29.67751755 39.54882812 29.67630005 C36.93041992 29.54931641 36.93041992 29.54931641 33.93041992 28.54931641 C33.19995117 26.70166016 33.19995117 26.70166016 32.74291992 24.48681641 C32.58436523 23.75333984 32.42581055 23.01986328 32.26245117 22.26416016 C32.15288086 21.69826172 32.04331055 21.13236328 31.93041992 20.54931641 C26.36200853 20.4748673 20.79389028 20.42057323 15.22509766 20.38452148 C13.33279367 20.36948395 11.44052426 20.34904856 9.54833984 20.32299805 C6.82014407 20.28639242 4.09241121 20.26953951 1.36401367 20.25634766 C0.5251915 20.2408638 -0.31363068 20.22537994 -1.1778717 20.20942688 C-6.55170751 20.20790536 -10.44751805 20.68588906 -15.06958008 23.54931641 Z M-267.06958008 95.54931641 C-271.64525727 104.95660101 -271.64525727 104.95660101 -270.06958008 126.54931641 C-193.50958008 126.54931641 -116.94958008 126.54931641 -38.06958008 126.54931641 C-38.06958008 115.32931641 -38.06958008 104.10931641 -38.06958008 92.54931641 C-66.89387515 92.47988607 -95.7181501 92.426341 -124.54251194 92.39387989 C-127.20623848 92.39080039 -129.86996498 92.38769637 -132.53369141 92.38452148 C-133.19577171 92.38373455 -133.85785202 92.38294762 -134.53999536 92.38213684 C-144.59097696 92.36989781 -154.64191596 92.34883529 -164.69287109 92.32299805 C-176.35712928 92.2931075 -188.02134915 92.27374418 -199.68564457 92.26705092 C-205.86246955 92.26313811 -212.03918493 92.2539343 -218.21597481 92.23212624 C-224.02959266 92.21176667 -229.84305574 92.2054816 -235.65670586 92.20999336 C-237.79041256 92.20916793 -239.92412442 92.20319923 -242.05780029 92.19169998 C-244.97199683 92.17676437 -247.88560978 92.18036691 -250.79981995 92.18855286 C-251.64322058 92.17981433 -252.48662121 92.17107581 -253.35557944 92.16207248 C-258.65191945 92.20225763 -262.50839192 92.73912842 -267.06958008 95.54931641 Z M171.93041992 92.54931641 C171.93041992 103.76931641 171.93041992 114.98931641 171.93041992 126.54931641 C181.83041992 126.54931641 191.73041992 126.54931641 201.93041992 126.54931641 C201.99229492 122.73369141 202.05416992 118.91806641 202.11791992 114.98681641 C202.14523193 113.79757568 202.17254395 112.60833496 202.20068359 111.38305664 C202.26991399 103.0108936 202.26991399 103.0108936 198.93041992 95.54931641 C193.32841417 91.99489062 187.97305643 92.18129489 181.49291992 92.36181641 C178.33729492 92.42369141 175.18166992 92.48556641 171.93041992 92.54931641 Z M-270.06958008 308.54931641 C-270.06958008 328.01931641 -270.06958008 347.48931641 -270.06958008 367.54931641 C-114.30958008 367.54931641 41.45041992 367.54931641 201.93041992 367.54931641 C201.93041992 348.07931641 201.93041992 328.60931641 201.93041992 308.54931641 C192.03041992 308.54931641 182.13041992 308.54931641 171.93041992 308.54931641 C171.27041992 312.17931641 170.61041992 315.80931641 169.93041992 319.54931641 C166.98533116 327.09067485 162.14996065 331.98767631 154.93041992 335.54931641 C150.49044317 337.27458224 146.80396995 337.8033623 142.05010986 337.81674194 C141.38233639 337.82127306 140.71456291 337.82580417 140.02655387 337.83047259 C137.80205488 337.84307337 135.57780208 337.84149905 133.35327148 337.83984375 C131.75286547 337.84583178 130.15246234 337.85263797 128.55206299 337.86019897 C124.21302675 337.87784002 119.87406944 337.88255361 115.5350008 337.88383055 C112.82088975 337.88525399 110.10679865 337.88952728 107.39269257 337.89482498 C97.91469554 337.91332028 88.43675471 337.92149638 78.95874023 337.91992188 C70.13936562 337.9187212 61.32023603 337.93981018 52.5009234 337.9714092 C44.91683312 337.9976091 37.33282267 338.00828759 29.74868751 338.00701106 C25.22452409 338.00650244 20.7005784 338.01212996 16.17646027 338.03336716 C11.91802838 338.0528118 7.66002051 338.05283178 3.40157318 338.03833389 C1.84480669 338.03625226 0.28801322 338.04090798 -1.26870728 338.05305481 C-11.28331299 338.1260922 -19.10500659 337.0738371 -27.81958008 331.92431641 C-34.7432562 324.61599161 -36.21810361 318.73243698 -38.06958008 308.54931641 C-114.62958008 308.54931641 -191.18958008 308.54931641 -270.06958008 308.54931641 Z M-270.06958008 387.54931641 C-270.99234613 399.55016177 -270.99234613 399.55016177 -267.06958008 409.54931641 C-262.03468486 412.20302347 -257.86518303 412.98360824 -252.16874695 412.92683983 C-251.01505999 412.93338031 -251.01505999 412.93338031 -249.83806622 412.94005293 C-247.26360844 412.95099188 -244.68968816 412.94059365 -242.11523438 412.93026733 C-240.24976929 412.93372443 -238.38430624 412.93848935 -236.51884747 412.94444907 C-231.39461027 412.95698151 -226.27054053 412.95077843 -221.1463027 412.94149041 C-215.61930292 412.93470948 -210.09233217 412.94517641 -204.56533813 412.95343018 C-193.73871023 412.96677989 -182.91214467 412.96388424 -172.08551431 412.95519225 C-163.28758498 412.948421 -154.48967313 412.94749657 -145.69174194 412.9507637 C-144.44024815 412.9512234 -143.18875436 412.9516831 -141.89933652 412.95215673 C-139.35706337 412.95311589 -136.81479022 412.95408853 -134.27251709 412.9550745 C-111.10569262 412.96338801 -87.93890077 412.95476213 -64.7720838 412.93904671 C-43.62416069 412.92480992 -22.47629178 412.92608381 -1.32836914 412.94042969 C22.43229271 412.95649407 46.19292832 412.96280802 69.95359707 412.9535929 C72.48659197 412.95263723 75.01958688 412.95169412 77.55258179 412.9507637 C78.79890973 412.95030088 80.04523767 412.94983805 81.32933313 412.9493612 C90.11813255 412.94676939 98.90691277 412.95114642 107.69570923 412.95820236 C118.40424677 412.96661044 129.11271833 412.96435177 139.82124829 412.94836013 C145.28637019 412.94046813 150.75138202 412.9374017 156.21650314 412.94730759 C161.21774362 412.95623566 166.21877182 412.95135271 171.219993 412.93537493 C173.03079594 412.93201913 174.84161675 412.93373908 176.65240824 412.94100229 C179.11172355 412.95011136 181.57030964 412.94078197 184.02958679 412.92683983 C185.08674796 412.93737508 185.08674796 412.93737508 186.16526592 412.94812316 C191.18199964 412.89119348 194.55905353 411.85330196 198.93041992 409.54931641 C203.77595202 402.67178698 201.93041992 396.42853657 201.93041992 387.54931641 C46.17041992 387.54931641 -109.58958008 387.54931641 -270.06958008 387.54931641 Z M-74.06958008 433.54931641 C-74.39856171 435.27664461 -74.6698677 437.01500339 -74.91748047 438.75585938 C-75.07757095 439.86726288 -75.23766144 440.97866638 -75.40260315 442.12374878 C-75.5724321 443.33410797 -75.74226105 444.54446716 -75.91723633 445.79150391 C-76.09338974 447.02595245 -76.26954315 448.260401 -76.45103455 449.53225708 C-76.82367523 452.14982612 -77.19470624 454.76756237 -77.56298828 457.38574219 C-78.03507203 460.74120262 -78.51265433 464.09585045 -78.99218082 467.45025444 C-79.44871477 470.64700473 -79.90167599 473.84425974 -80.35473633 477.04150391 C-80.52658951 478.24781464 -80.69844269 479.45412537 -80.87550354 480.69699097 C-81.03244186 481.81469879 -81.18938019 482.93240662 -81.35107422 484.08398438 C-81.49017715 485.06914032 -81.62928009 486.05429626 -81.77259827 487.06930542 C-82.12903043 489.62948123 -82.12903043 489.62948123 -82.06958008 492.54931641 C-50.38958008 492.54931641 -18.70958008 492.54931641 13.93041992 492.54931641 C11.39575546 472.17732377 11.39575546 472.17732377 8.62280273 451.84008789 C8.29370829 449.52959172 7.9714641 447.21819186 7.64916992 444.90673828 C7.43863851 443.42425868 7.22771822 441.94183424 7.01635742 440.45947266 C6.92156097 439.77434097 6.82676453 439.08920929 6.72909546 438.38331604 C6.48094213 435.18598104 6.48094213 435.18598104 4.93041992 432.54931641 C2.50184957 432.44901784 0.10170379 432.41313216 -2.32739258 432.41992188 C-3.08671082 432.41816956 -3.84602905 432.41641724 -4.62835693 432.41461182 C-7.15045423 432.41019311 -9.672482 432.41313135 -12.19458008 432.41650391 C-13.93953464 432.41583087 -15.68448912 432.41486085 -17.42944336 432.41360474 C-21.09139903 432.41212774 -24.75333036 432.41428238 -28.4152832 432.41894531 C-33.120025 432.4246426 -37.82470976 432.42136361 -42.52944946 432.41537285 C-46.13411899 432.41176729 -49.7387749 432.4129058 -53.34344482 432.41550064 C-55.07867438 432.41616992 -56.81390516 432.41534144 -58.5491333 432.41302109 C-60.97004495 432.41049464 -63.39086294 432.41433502 -65.81176758 432.41992188 C-66.53595886 432.41789764 -67.26015015 432.41587341 -68.00628662 432.41378784 C-71.32112099 432.13941161 -71.32112099 432.13941161 -74.06958008 433.54931641 Z " fill="#010188" transform="translate(290.069580078125,-0.54931640625)"/>
<path d="M0 0 C76.56 0 153.12 0 232 0 C232 60.06 232 120.12 232 182 C155.44 182 78.88 182 0 182 C0 121.94 0 61.88 0 0 Z " fill="#A3F9C4" transform="translate(20,126)"/>
<path d="M0 0 C9.9 0 19.8 0 30 0 C30 60.06 30 120.12 30 182 C20.1 182 10.2 182 0 182 C0 121.94 0 61.88 0 0 Z " fill="#A4FBC4" transform="translate(462,126)"/>
<path d="M0 0 C1.01914305 -0.00551503 1.01914305 -0.00551503 2.05887485 -0.01114148 C4.34652877 -0.02219694 6.6341373 -0.0260253 8.92181396 -0.02983093 C10.55767461 -0.03609421 12.19353383 -0.04274089 13.82939148 -0.04974365 C18.28200829 -0.06716663 22.73461435 -0.07770907 27.18725681 -0.08594918 C29.96831258 -0.09109688 32.74936499 -0.09717273 35.5304184 -0.10346031 C44.22930606 -0.12251652 52.92818521 -0.13674641 61.62708974 -0.14507228 C71.67279916 -0.15484552 81.71828828 -0.18116547 91.76392007 -0.22157317 C99.52535066 -0.25172277 107.28671807 -0.26654008 115.04820609 -0.26985329 C119.68521371 -0.27220522 124.3219861 -0.28118395 128.95893097 -0.30631447 C133.32233529 -0.32957987 137.68534926 -0.33383468 142.04879951 -0.32355309 C143.64917613 -0.32305723 145.24957185 -0.32939239 146.84988976 -0.34310913 C149.03768238 -0.36080998 151.22407137 -0.35373246 153.41186523 -0.34057617 C155.24694578 -0.3441587 155.24694578 -0.3441587 157.11909866 -0.34781361 C161.15556144 0.25024263 163.2995835 1.60783114 166.4598999 4.14717102 C168.59488765 7.34965265 168.7338453 7.95717796 168.3973999 11.58467102 C168.34454834 12.34650696 168.29169678 13.1083429 168.23724365 13.89326477 C167.09861857 17.19470535 165.35926174 18.25033882 162.4598999 20.14717102 C159.20367432 20.65053558 159.20367432 20.65053558 155.43841553 20.65510559 C154.74346733 20.66134555 154.04851913 20.66758552 153.3325119 20.67401457 C151.01004337 20.68993568 148.68862572 20.67734478 146.3661499 20.66474915 C144.69866322 20.67017069 143.03118132 20.67729354 141.3637085 20.68598938 C136.83890027 20.70422188 132.31445693 20.69715556 127.78964233 20.68447304 C123.05406715 20.67434498 118.31852319 20.68373818 113.58294678 20.6900177 C105.63041577 20.69729467 97.67803335 20.6877051 89.7255249 20.6686554 C80.53171632 20.64688655 71.33826256 20.65393788 62.14446259 20.67596102 C54.25047519 20.6941136 46.3565946 20.69667404 38.46259308 20.68620634 C33.74801314 20.67997063 29.03359998 20.67913791 24.31903076 20.69235229 C19.8865905 20.70390812 15.45460765 20.69589011 11.0222168 20.67277527 C9.39563761 20.66748672 7.76901992 20.66900448 6.14245605 20.67782593 C3.92157939 20.68875997 1.70216762 20.67504608 -0.51861572 20.65510559 C-1.76115112 20.65359749 -3.00368652 20.65208939 -4.28387451 20.65053558 C-8.14103112 20.05427593 -9.79728088 18.87210306 -12.5401001 16.14717102 C-13.77456749 13.14293622 -13.93515388 10.36324269 -13.5401001 7.14717102 C-10.28238889 0.98945807 -6.55865217 0.02293867 0 0 Z " fill="#050789" transform="translate(58.54010009765625,206.8528289794922)"/>
<path d="M0 0 C1.0202014 -0.00445668 1.0202014 -0.00445668 2.06101292 -0.0090034 C4.35100558 -0.0177083 6.64094607 -0.01920015 8.93095398 -0.02069092 C10.56843681 -0.02531785 12.20591856 -0.03034234 13.84339905 -0.03573608 C18.30008536 -0.04887464 22.75675659 -0.05530794 27.21345925 -0.05974674 C29.99651751 -0.06267528 32.77957162 -0.06677968 35.56262779 -0.07125092 C44.26632141 -0.08493003 52.97000559 -0.09459451 61.67370921 -0.09845281 C71.72787851 -0.10293394 81.78191188 -0.12048267 91.83603984 -0.1494534 C99.60255123 -0.1710571 107.36902434 -0.18115639 115.13556546 -0.18249393 C119.77640737 -0.18354295 124.41712157 -0.18947131 129.0579319 -0.20731354 C133.42374864 -0.22377144 137.78934139 -0.22596087 142.15517807 -0.21717453 C143.75758018 -0.21640291 145.35999421 -0.22076327 146.9623661 -0.23063278 C149.15030863 -0.24331855 151.3374538 -0.23749451 153.52539062 -0.22705078 C155.36185386 -0.22925062 155.36185386 -0.22925062 157.23541737 -0.2314949 C161.60789053 0.27391476 164.1899384 1.87720951 167.26567078 4.95294189 C168.89879237 7.96132378 168.92737327 9.75328119 168.45317078 13.14044189 C165.33009385 18.8481342 165.33009385 18.8481342 161.45317078 20.14044189 C159.20726465 20.24320368 156.95839233 20.28421449 154.7101593 20.29434204 C154.02100351 20.29872429 153.33184771 20.30310655 152.62180841 20.3076216 C150.30729231 20.3210006 147.99281428 20.32718635 145.67826843 20.33331299 C144.02093331 20.3412145 142.3635999 20.34948348 140.70626831 20.35809326 C135.25993999 20.38430187 129.81360402 20.39961707 124.36723328 20.41387939 C122.49297963 20.41923905 120.61872604 20.42461655 118.7444725 20.43001175 C110.95007048 20.45163637 103.15567053 20.47037448 95.36124611 20.48163414 C84.18576192 20.49788393 73.01062481 20.53109135 61.83527148 20.58803499 C53.97957144 20.62670153 46.12396439 20.64626277 38.26817167 20.6515547 C33.57470214 20.65521191 28.8816029 20.66727268 24.18823624 20.69965744 C19.77387675 20.72968136 15.36011273 20.7360704 10.94567299 20.72427368 C9.32551545 20.72405249 7.70533072 20.73239555 6.08526802 20.74992752 C3.8728423 20.77256709 1.66258563 20.76435174 -0.54985046 20.7484436 C-1.78760916 20.75175375 -3.02536785 20.7550639 -4.30063438 20.75847435 C-8.44369919 19.96968974 -9.90871888 18.35182296 -12.54682922 15.14044189 C-13.99830825 12.23748384 -13.91921948 10.3678241 -13.54682922 7.14044189 C-9.83849385 1.1489896 -6.81323424 0.0165692 0 0 Z " fill="#030488" transform="translate(58.54682922363281,161.85955810546875)"/>
<path d="M0 0 C3.66683799 2.44455866 4.73841636 4.21524908 6.125 8.375 C6.82100392 19.20400219 0.15491543 30.6597438 -6 39 C-6.46019531 39.64324219 -6.92039062 40.28648437 -7.39453125 40.94921875 C-17.24995315 53.58801628 -32.58595809 59.76331675 -48 62 C-58.85842248 63.00976413 -69.62413822 61.08471063 -79.5625 56.625 C-81.86379611 55.56487018 -81.86379611 55.56487018 -84 55 C-86.78508316 56.13749195 -86.78508316 56.13749195 -89 58 C-92.76404504 58.56060245 -94.73484779 58.11217978 -98.25 56.625 C-103.74934503 51.3756252 -103.12276495 43.92019994 -103.3125 36.6875 C-103.38305269 31.84107275 -103.0330628 28.86835323 -100 25 C-95.58888508 21.98527576 -90.16878772 22.2937606 -85 22 C-83.74123047 21.91878906 -83.74123047 21.91878906 -82.45703125 21.8359375 C-77.80002775 21.66432263 -74.6986971 21.84522895 -71 25 C-68.96267422 27.37688008 -67.97813271 28.93049068 -68.04296875 32.1015625 C-68.28400788 34.07878207 -68.63492748 36.04188378 -69 38 C-56.52251698 40.97335766 -45.21028213 41.15409828 -33.640625 34.6796875 C-31.60507464 33.2358669 -29.80946987 31.71759833 -28 30 C-27.38511719 29.42507812 -26.77023437 28.85015625 -26.13671875 28.2578125 C-20.96513894 22.92012199 -18.54781203 16.8951939 -16 10 C-14.77352567 6.7294018 -13.64677175 3.77115093 -11.375 1.0625 C-7.59198463 -0.62990161 -4.05992171 -0.75264146 0 0 Z " fill="#010188" transform="translate(411,148)"/>
<path d="M0 0 C3.33343695 1.00486215 3.73442019 0.38003122 6.6953125 -1.1875 C11.15961238 -1.61267142 13.56754774 -1.75138238 17.5703125 0.25 C22.8088235 6.56702798 22.18426458 15.55402117 22.08203125 23.39453125 C21.71809806 26.61111247 21.4130615 28.18694511 19.4453125 30.6875 C14.98770921 34.13201163 10.38592821 34.14582827 4.8828125 34.5625 C3.85317383 34.66498047 3.85317383 34.66498047 2.80273438 34.76953125 C-2.39441033 35.15304808 -5.70753158 34.30743889 -10.3046875 31.8125 C-13.35105272 27.48862679 -13.61717595 24.02064086 -13.3046875 18.8125 C-22.82154891 15.18702899 -33.44551209 15.62579538 -42.77734375 19.55859375 C-52.75798202 24.51034782 -59.68079807 30.78064945 -63.5546875 41.4375 C-64.14602332 43.22654141 -64.73002454 45.01803359 -65.3046875 46.8125 C-66.48765257 50.13204484 -67.64737556 53.05780851 -69.9921875 55.75 C-73.45852436 57.34264126 -76.6182993 57.54836252 -80.3046875 56.8125 C-84.43631352 54.40864486 -85.96321825 52.87484876 -87.4296875 48.3125 C-88.06933183 35.73282814 -80.26670361 22.6963779 -72.2421875 13.625 C-52.88628585 -7.19342159 -25.34855825 -9.10870178 0 0 Z " fill="#010188" transform="translate(384.3046875,94.1875)"/>
<path d="M0 0 C0.86032837 -0.0065712 1.72065674 -0.0131424 2.60705566 -0.01991272 C5.46158937 -0.03966563 8.31607043 -0.05131256 11.1706543 -0.0612793 C12.63138902 -0.06739259 12.63138902 -0.06739259 14.12163353 -0.07362938 C19.27558557 -0.09449832 24.42951092 -0.10879664 29.58349609 -0.11816406 C34.91014016 -0.12923204 40.23636689 -0.16363414 45.56286335 -0.20333576 C49.65580529 -0.22946615 53.74864725 -0.2378527 57.84166527 -0.24144554 C59.80527758 -0.24632053 61.76888516 -0.25796037 63.73241615 -0.27648354 C66.48080246 -0.30079958 69.22810183 -0.29992384 71.9765625 -0.29296875 C72.78765976 -0.30577881 73.59875702 -0.31858887 74.43443298 -0.33178711 C78.22927442 -0.29678553 80.43347767 0.01803107 83.66398621 2.08137512 C85.75202882 4.24932333 86.65595485 5.19952854 86.73706055 8.20043945 C86.24832184 14.59654165 86.24832184 14.59654165 83.24487305 17.67700195 C78.8847385 20.22927584 75.63301692 20.34295171 70.65600586 20.36987305 C69.82654449 20.37805054 68.99708313 20.38622803 68.14248657 20.39465332 C65.39016444 20.4195194 62.63789397 20.43602728 59.88549805 20.45043945 C58.94602074 20.45576313 58.00654343 20.46108681 57.03859711 20.46657181 C52.06504634 20.49330991 47.09152072 20.51268184 42.11791992 20.52709961 C36.9818381 20.54374028 31.84639885 20.58851126 26.71055984 20.63947105 C22.76083647 20.67313835 18.81126562 20.68467653 14.86141205 20.69032669 C12.96838221 20.69704165 11.0753625 20.71227008 9.18247223 20.7362175 C6.52988981 20.76785846 3.87904017 20.76790762 1.22631836 20.76049805 C0.05714371 20.78510605 0.05714371 20.78510605 -1.13565063 20.81021118 C-5.15799904 20.76431134 -7.6065256 20.34015533 -10.7925415 17.78311157 C-13.98927856 14.48379859 -14.3355752 12.74897128 -14.5637207 8.33325195 C-14.18667845 5.02964361 -12.72044472 3.37386391 -10.31762695 1.17700195 C-7.08736165 -0.4381307 -3.54994271 0.01168111 0 0 Z " fill="#050789" transform="translate(59.317626953125,252.822998046875)"/>
<path d="M0 0 C1.65246735 -0.01925285 1.65246735 -0.01925285 3.33831787 -0.03889465 C4.53410461 -0.04628159 5.72989136 -0.05366852 6.96191406 -0.0612793 C8.18783264 -0.06935104 9.41375122 -0.07742279 10.67681885 -0.08573914 C13.27606792 -0.09959042 15.87533527 -0.11030788 18.47460938 -0.11816406 C22.44721978 -0.13137862 26.41921688 -0.17924558 30.39160156 -0.22338867 C32.91503293 -0.23351614 35.43847139 -0.24203207 37.96191406 -0.2487793 C39.14960388 -0.26628738 40.3372937 -0.28379547 41.56097412 -0.30183411 C47.8772123 -0.28525028 51.99139825 -0.21143383 56.72753906 4.17700195 C58.45623685 7.63439753 58.21720802 11.39675763 57.72753906 15.17700195 C55.93360238 18.04730064 54.7449063 19.66831833 51.72753906 21.17700195 C49.90600714 21.28829401 48.08045732 21.33623245 46.25561523 21.35400391 C45.11070114 21.36683914 43.96578705 21.37967438 42.78617859 21.39289856 C40.92217155 21.40397896 40.92217155 21.40397896 39.02050781 21.4152832 C37.74782547 21.42335495 36.47514313 21.4314267 35.16389465 21.43974304 C32.46624094 21.45359422 29.76870988 21.46460756 27.07104492 21.47216797 C23.62085657 21.48322464 20.17131457 21.51761531 16.72135448 21.55733967 C13.42530307 21.58982169 10.12919489 21.5942863 6.83300781 21.6027832 C5.59640915 21.62029129 4.35981049 21.63779938 3.08573914 21.65583801 C1.93136856 21.65291245 0.77699799 21.64998688 -0.41235352 21.64697266 C-1.42558182 21.6528389 -2.43881012 21.65870514 -3.48274231 21.66474915 C-7.02407969 21.04559087 -8.69820947 19.63331928 -11.27246094 17.17700195 C-13.0087773 13.70436923 -12.87436496 9.96507182 -12.27246094 6.17700195 C-8.45407337 1.35377555 -5.97206001 0.06046536 0 0 Z " fill="#020287" transform="translate(334.2724609375,267.822998046875)"/>
</svg>
